<svg id="Layer_1" data-name="Layer 1" xmlns="http://www.w3.org/2000/svg" viewBox="0 0 100 100"><defs><style>.cls-1{fill:#4cd38e;}.cls-2{fill:#4bb57b;}.cls-3{fill:#244157;}.cls-4{fill:#999;}.cls-5{fill:#e4a582;}.cls-6{fill:#c1876b;}.cls-7{fill:#fff;}.cls-8{fill:none;stroke:#4d4d4d;stroke-miterlimit:10;}</style></defs><path class="cls-1" d="M97.38,50A47.44,47.44,0,0,1,50,97.59c-1.2,0-2.39,0-3.56-.13a46.92,46.92,0,0,1-21.31-6.95A47.52,47.52,0,1,1,97.38,50Z"/><path class="cls-2" d="M89.2,76.72A47.72,47.72,0,0,1,75.71,90,47,47,0,0,1,50,97.59c-1.2,0-2.39,0-3.56-.13l19-56.55Z"/><path class="cls-3" d="M75.71,90a47.23,47.23,0,0,1-50.58.53l1.06-2.62s9.09-14,12.81-14.31H65.4a3.28,3.28,0,0,1,2.09.75C69.3,75.82,72.3,80,75.07,87.89,75.33,88.62,75.54,89.32,75.71,90Z"/><path class="cls-4" d="M42.43,74.58s-3.84.07-.89,2.09c0,0,7.62,5.49,17.87,0,0,0,3.46-2.58-3-2.58C55.78,74.09,42.43,74.58,42.43,74.58Z"/><path class="cls-5" d="M45.64,66.14V72l-4.19,3.33,7.49,2.53a4.2,4.2,0,0,0,3-.13l7-3.11L54.43,72V66.14Z"/><polygon class="cls-5" points="50.25 33.27 51.58 70.45 34.99 57.93 34.99 33.27 50.25 33.27"/><polygon class="cls-6" points="64.62 33.27 64.62 58.66 51.12 72.88 49.59 33.27 64.62 33.27"/><rect class="cls-6" x="64.62" y="44.62" width="1.67" height="8.88"/><rect class="cls-6" x="32.68" y="44.62" width="1.67" height="8.88"/><path class="cls-7" d="M62.74,22.13s-1.45,8-5.36,6.26c-.11-.05-15.93-1.09-15.93-1.09-5.49.14-7.94,7.13-7.94,7.13v8.81l0,1.38.18,8.88.12,5.6,9.34,10.33H56.8l8.66-11.06V36.61C70.49,28.61,62.74,22.13,62.74,22.13ZM35,50.66l.15-6a3.39,3.39,0,0,0,1.16-.74,4.43,4.43,0,0,0,.88-1.21,10.58,10.58,0,0,0,.93-4.46c4.41.34,8.39.4,11.69.34l.63,0a86.57,86.57,0,0,0,9-.61c1.42-1,2.64,2.41,3.29,4.73.3,1.11.47,2,.47,2a4.89,4.89,0,0,0,.66,1.57c.08.14.17.28.26.41l-.26,7.26c.25,1.13-1.27,2.63-2.19,3.41a1.87,1.87,0,0,1-1.42.42L55.6,57.1a1.88,1.88,0,0,1-.61-.19l-4-2-.61-.31-.28-.14a1.88,1.88,0,0,0-1.85,0L44,57a2.68,2.68,0,0,1-.75.3l-3.87.87a2.61,2.61,0,0,1-2.55-.82C35,55.32,35,51.09,35,50.69Z"/><path class="cls-5" d="M45.1,61.94l4.11,1.91a.83.83,0,0,0,1,0l4.66-3.51Z"/><path class="cls-8" d="M38,42.65H49.19a0,0,0,0,1,0,0v.45a8.14,8.14,0,0,1-8.14,8.14h0a4.75,4.75,0,0,1-4.75-4.75v-2.1A1.74,1.74,0,0,1,38,42.65Z"/><path class="cls-8" d="M55.68,42.65h0a8.14,8.14,0,0,1,8.14,8.14v.45a0,0,0,0,1,0,0H52.67a1.74,1.74,0,0,1-1.74-1.74v-2.1a4.75,4.75,0,0,1,4.75-4.75Z" transform="translate(114.75 93.89) rotate(-180)"/><line class="cls-8" x1="49.19" y1="42.65" x2="50.93" y2="42.65"/></svg>