<svg id="Layer_1" data-name="Layer 1" xmlns="http://www.w3.org/2000/svg" viewBox="0 0 100 100"><defs><style>.cls-1{fill:#244157;}.cls-2{fill:#37627c;opacity:0.54;}.cls-3{fill:#af3720;}.cls-4{fill:#fff;}.cls-5{fill:#4cd38e;}.cls-6{fill:#fcc64c;}.cls-7{fill:#fbb03b;}.cls-8{fill:#f9d16e;}.cls-9{fill:#ed5a2e;}.cls-10,.cls-11{fill:none;stroke-linecap:round;stroke-linejoin:round;}.cls-10{stroke:#333;}.cls-11{stroke:#4d4d4d;}.cls-12{fill:#ef953c;opacity:0.42;}</style></defs><path class="cls-1" d="M97.38,50a47,47,0,0,1-2.92,16.35,45.1,45.1,0,0,1-1.88,4.34A47.39,47.39,0,0,1,50,97.16c-.68,0-1.36,0-2,0-.91,0-1.81-.1-2.71-.2A47.17,47.17,0,1,1,97.38,50Z"/><path class="cls-2" d="M92.58,70.69A47.39,47.39,0,0,1,50,97.16c-.68,0-1.36,0-2,0-.91,0-1.81-.1-2.71-.2l9.65-71.39,14,10.28Z"/><path class="cls-3" d="M36.94,65.91h0s.06.29.21.81.35,1.2.67,2.07l-3.24.77c.72-.58,2.18-4.93,2.18-4.93a103.11,103.11,0,0,1-5.09-16c-.47-2.34-.11-5.91.61-9.66l0-.24c.22-.06.46-.13.74-.23l-.66,7.95,2.9,1.46,2-.7,2.3,8,4.29,2.67-.34,5.84S40.46,64.66,36.94,65.91Z"/><path class="cls-4" d="M66.16,66c.37,6.49-15.75,24.22-15.75,24.22C40.83,84,34.58,66.78,34.58,66.78l2.36-.87s.06.29.21.81a43.13,43.13,0,0,0,13,20.21S61.28,76,64,66.09c.07-.28.15-.56.21-.84Z"/><path class="cls-5" d="M76.82,88.88A47.27,47.27,0,0,1,50,97.16c-.68,0-1.36,0-2,0A47.19,47.19,0,0,1,24,89.4a7.17,7.17,0,0,1-1-3.72c0-12.34,2.9-13.07,4.35-15.24.64-1,3.86-2.38,7.26-3.66,0,0,.23.64.68,1.72.1.25.22.52.34.82,2.14,5,7.51,16.13,14.82,20.94A149,149,0,0,0,61.29,76.63c.18-.25.36-.5.52-.76C64.37,72,66.29,68.34,66.17,66A62.51,62.51,0,0,1,72.33,69C77.85,72,77.17,84.93,76.82,88.88Z"/><path class="cls-6" d="M59.37,75.63a78.5,78.5,0,0,1-9.18,11.3A43.06,43.06,0,0,1,37.82,68.79c-.32-.87-.53-1.58-.67-2.07s-.21-.81-.21-.81h0c3.52-1.25,6.63-2.21,6.63-2.21l.34-5.84.11-2,5.81-.68,6.53-.77v8l.56.17,1.83.61c-.13.43-.21.67-.21.67C53.26,70.14,56.54,73.83,59.37,75.63Z"/><path class="cls-7" d="M64.23,65.25c-.06.28-.14.56-.21.84a35.35,35.35,0,0,1-4.65,9.54c-2.83-1.8-6.11-5.49-.83-11.73,0,0,.08-.24.21-.67l1.5.53C61.43,64.18,62.79,64.68,64.23,65.25Z"/><path class="cls-3" d="M58.75,63.23c-1.47-.5-2.39-.78-2.39-.78v-8L44,55.91l-.11,2-4.29-2.67-2.3-8-2,.7-2.9-1.46.66-7.95.12-.05a1.74,1.74,0,0,0,.25-.11,8.25,8.25,0,0,0,2.51-1.69,5,5,0,0,0,.45-.47,3.48,3.48,0,0,0,.24-.28l.2-.24a7.88,7.88,0,0,0,.51-.73c.08-.11.16-.24.23-.36a12.35,12.35,0,0,0,1-2.06l.15-.44c.1-.26.18-.53.26-.81s.1-.39.15-.6a7,7,0,0,0,.15-.69c0-.23.09-.47.13-.72a.5.5,0,0,0,0-.12c.06-.36.11-.72.15-1.1s.07-.77.1-1.18A17.29,17.29,0,0,0,54.84,37.76c3.78.23,5.88,1.92,7,4.08C63.89,45.84,59.74,60,58.75,63.23Z"/><path class="cls-8" d="M66.16,37.76,63,46.58l-.83,2.28-2.45,6.69-3.31,2.2-6.11,4.07-.42-.27-5.92-3.69-4.29-2.67-2.3-8-2.74-9.47h0l3.95-12.33H60C60.72,25.42,66.16,37.76,66.16,37.76Z"/><polygon class="cls-6" points="37.31 47.23 35.3 47.93 32.4 46.47 33.06 38.52 33.13 37.76 34.58 37.76 37.31 47.23"/><path class="cls-9" d="M65.07,66.8S60,71.89,62.17,77a13.38,13.38,0,0,1-2.8-1.34c-2.83-1.8-6.11-5.49-.83-11.73,0,0,.08-.24.21-.67a113.29,113.29,0,0,0,3-11.89c.72-3.94,1-7.72.12-9.5-1.12-2.16-3.22-3.85-7-4.08a18.09,18.09,0,0,1-5-1,17.43,17.43,0,0,1-10.17-9.89c0,.41-.06.8-.1,1.18s-.09.74-.15,1.1a.5.5,0,0,1,0,.12c0,.25-.09.49-.13.72a7,7,0,0,1-.15.69c0,.21-.1.4-.15.6s-.16.55-.26.81l-.15.44a12.35,12.35,0,0,1-1,2.06c-.07.12-.15.25-.23.36a7.88,7.88,0,0,1-.51.73l-.2.24a3.48,3.48,0,0,1-.24.28,5,5,0,0,1-.45.47,8.25,8.25,0,0,1-2.51,1.69l-.25.11-.12.05c-.28.1-.52.17-.74.23a140.51,140.51,0,0,1,4.44-16.4s2.9-2.74,5.08-1.29c0,0,14.82-8,23,4.36,0,0,6,8.71,3.84,17.42l-.08,1.07C69.68,48.79,71.11,59.66,65.07,66.8Z"/><path class="cls-10" d="M33,45.11c-.77,0,0,6.53,1.71,2.54"/><path class="cls-11" d="M34.94,45.39c-.76,0,0,6.53,1.71,2.54"/><path class="cls-12" d="M62.12,48.86l-2.45,6.69-3.31,2.2v4.7l.56.17a80.63,80.63,0,0,1-7.09,11.54V36.76a18.09,18.09,0,0,0,5,1c3.78.23,5.88,1.92,7,4.08C62.55,43.24,62.52,45.88,62.12,48.86Z"/></svg>