<svg id="Layer_1" data-name="Layer 1" xmlns="http://www.w3.org/2000/svg" viewBox="0 0 100 100"><defs><style>.cls-1{fill:#dd5865;}.cls-2{fill:#a03f52;}.cls-3{fill:#333;}.cls-4{fill:#fff;}.cls-5{fill:#e4a582;}.cls-6{fill:#c1876b;}.cls-7{fill:#cc967a;}</style></defs><path class="cls-1" d="M97.38,49.78a47.12,47.12,0,0,1-6.18,23.4c-.62,1.1-1.29,2.17-2,3.21A47.66,47.66,0,0,1,79,87.25c-1,.82-2.15,1.6-3.28,2.33a47,47,0,0,1-18.19,7c-.47.08-.93.15-1.4.21-.64.08-1.28.15-1.93.2-1.38.13-2.78.19-4.19.19h-.59q-1.5,0-3-.12c-1.34-.1-2.66-.26-4-.47a46.94,46.94,0,0,1-17.35-6.45c-1.14-.7-2.25-1.45-3.32-2.25A47.38,47.38,0,1,1,97.38,49.78Z"/><path class="cls-2" d="M57.51,96.6v0a47,47,0,0,0,18.19-7c1.13-.73,2.23-1.51,3.28-2.33A47.66,47.66,0,0,0,89.2,76.39c.71-1,1.38-2.11,2-3.21L63.58,33.12l-.34,7.5-.63,1.7-.14.37-.08.21-.33.89-.75,2-1.62,4.34L54,65.58l-.1.27-.66,1.78-2.09,5.63-.52,1.4-1.12,3L45,89.89l-2.48,6.67c1.3.21,2.62.37,4,.47q1.47.1,3,.12H50c1.41,0,2.81-.06,4.19-.19Z"/><path class="cls-3" d="M61.14,50.17s3,10.66,5.13,11.44-5.12-.47-6.87-3.76c0,0,2.88,8,3.55,8.3s-4.23-.93-4.23-.93l-2.31,2.41-2.86-2.41-3.94-.79V50.17Z"/><path class="cls-3" d="M38.72,59.7s-1.81,5.56-3.08,6,3.08-.24,4.13-2c0,0-1.73,4.17-2.13,4.33a24.13,24.13,0,0,0,2.54-.48l1.38,1.25,1.72-1.25,2.36-.42V59.7Z"/><path class="cls-3" d="M79,87.25c-1,.82-2.15,1.6-3.28,2.33a47,47,0,0,1-18.19,7v0l-1.39.17c-.77.08-1.55.15-2.33.2q-2.17.16-4.38.18-1.5,0-3-.12c-1.34-.1-2.66-.26-4-.47a46.94,46.94,0,0,1-17.35-6.45c-1.14-.7-2.25-1.45-3.32-2.25,2.56-3.85,9.87-14.35,13.55-14.6h32a4.59,4.59,0,0,1,2.54.74C72.07,75.47,75.67,79.52,79,87.25Z"/><polygon class="cls-4" points="57.51 96.6 57.52 96.56 59 74.32 50.61 74.66 41.45 75.03 44.96 89.89 46.16 97.59 53.32 97.59 53.72 97.59 57.51 96.6"/><path class="cls-5" d="M45.64,65.85v5.87L41.45,75l7.49,2.52a4.15,4.15,0,0,0,3-.14l7-3.09-4.57-2.69V65.85Z"/><rect class="cls-6" x="62.06" y="42.21" width="3.04" height="9.89" rx="1"/><rect class="cls-6" x="34.08" y="43.26" width="1.88" height="8.84" rx="0.49"/><polygon class="cls-5" points="35.41 33.13 35.41 56.33 44.16 67.63 54.07 67.63 62.47 56.33 62.47 33.13 35.41 33.13"/><polygon class="cls-7" points="49.45 33.12 47.5 53.94 49.62 67.63 54.25 67.63 62.39 56.33 62.39 33.13 49.45 33.12"/><path class="cls-3" d="M36.8,27.86l-3.4,7.07.64,8.8,1.06,4,1.24-4.42,1.11-8.77s3.46-2.19,4.81-1.37c0,0,4.76,7.24,9.17,7,0,0-4.6-4.5-4.32-5.76,0,0,9.38,6.2,9.48,9.78,0,0-1.11-7.39-5.06-10.75,0,0,7.36-.66,8.19,2.6V33.84l1.84.44s.73,9.41,0,10.08l-.92,5.42,2.23-1.16.71-15.5S57.69,25.91,52.63,26s-7.76-2.94-10.37-1.85A23.47,23.47,0,0,0,36.8,27.86Z"/></svg>