<?xml version="1.0" encoding="utf-8"?>
<!-- Generator: Adobe Illustrator 25.2.3, SVG Export Plug-In . SVG Version: 6.00 Build 0)  -->
<svg version="1.1" id="Layer_1" xmlns="http://www.w3.org/2000/svg" xmlns:xlink="http://www.w3.org/1999/xlink" x="0px" y="0px"
	 viewBox="0 0 100 100" style="enable-background:new 0 0 100 100;" xml:space="preserve">
<style type="text/css">
	.st0{fill:#306FC4;}
	.st1{fill:#FEFEFE;}
	.st2{fill:#316FC4;}
	.st3{fill:#3270C5;}
	.st4{fill:#316FC5;}
	.st5{fill:#FCFCFD;}
	.st6{fill:#FBFCFD;}
	.st7{fill:#FCFDFE;}
	.st8{fill:#FDFEFE;}
	.st9{fill:#FDFDFE;}
	.st10{fill:#F7F9FC;}
</style>
<g>
	<g id="Layer_1_1_">
		<circle class="st0" cx="50" cy="50" r="47.5"/>
		<g id="oueJKu.tif">
			
				<image style="overflow:visible;opacity:0.4;enable-background:new    ;" width="88" height="48" xlink:href="AA7ACC6063062F77.png"  transform="matrix(1 0 0 1 6 26)">
			</image>
			<path class="st1" d="M27.9,40c0-0.6,0.2-0.8,0.8-0.8c1.2,0,2.4,0,3.6,0c0.5-0.1,0.9,0.2,1,0.7c0.2,0.6,0.5,1.1,0.8,1.7
				c0.1-0.1,0.2-0.3,0.2-0.4c0.3-1.7,1.4-2,3-2c4.4,0.1,8.7,0,13.1,0c0.7-0.1,1.4,0,2,0.3c0.1,0,0.2,0.1,0.3,0.1
				c1.3-0.9,2.8-0.2,4.2-0.4c0.7,0.8,1.4,0.1,2.1,0c2.3-0.1,4.5,0,6.8-0.1c0.6,0,0.6,0.6,1,0.9c-0.1-0.8,0.2-0.9,0.9-0.9
				c0.9,0.1,1.8,0.1,2.8,0c0.7,0,1.2,0,1.4,0.9c0-0.9,0.4-0.9,1.1-0.9c1,0,1.9,0,2.8,0c0.4,0,0.6,0.2,0.6,0.6c0,2.8,0,5.6,0,8.5
				c0,0.5-0.2,0.6-0.7,0.6c-0.8,0-1.6,0-2.3,0c-1,0-2,0.3-2.3-1.2c-0.4,0.4,0,1-0.4,1.2c-0.4,0.1-0.7,0.1-1.1,0.1
				c-1.2,0-2.4,0-3.6,0c-0.6,0-1-0.2-1.1-0.8c0-0.5-0.4-0.9-0.9-0.8c0,0-0.1,0-0.1,0c-0.5-0.1-0.9,0.2-1,0.7c0,0,0,0.1,0,0.1
				c-0.1,0.7-0.5,0.8-1.2,0.8c-1.5-0.1-2.9,0.1-4.3-0.4c-0.2-0.1-0.3-0.1-0.4,0.1s-0.4,0.3-0.6,0.3c-1.9,0-3.9,0-5.8,0
				c-0.5,0-0.7-0.2-0.7-0.7c0.1-0.6,0-1.3-0.2-1.9c-0.2,0.6-0.3,1.3-0.2,2c0,0.5-0.1,0.7-0.7,0.7c-4.1,0-8.2,0-12.3,0
				c-0.6,0-0.7-0.3-0.7-0.9c-0.8,1-2.4,1.2-3.4,0.4c-0.2-0.1-0.3-0.3-0.4-0.5c0.1,1-0.4,1-1,1c-1.3,0-2.6,0-3.9,0
				c-0.6,0-1-0.1-1.2-0.8c-0.1-0.4-0.2-0.8-0.9-0.8c-0.5-0.1-0.9,0.3-1,0.7c0,0,0,0,0,0.1c-0.1,0.7-0.6,0.8-1.2,0.8
				c-1.3-0.1-2.7,0-4,0c-0.1-0.3,0.1-0.5,0.1-0.7c1.2-2.8,2.5-5.6,3.6-8.4c0.1-0.4,0.5-0.7,1-0.7c0.9,0,1.8,0,2.8,0
				S27.4,39.2,27.9,40z"/>
			<path class="st1" d="M32.6,55.7c0-1.4,0-2.8,0-4.2c0-0.5,0.1-0.8,0.7-0.8c2.5,0,5.1,0,7.6,0c0.8,0,1,0.5,1.4,1s0.6,0.5,1,0
				c0.5-0.8,1.4-1.1,2.3-1c1.7,0.1,3.4,0.1,5.1,0c0.7,0,1.4,0.7,2.1,0c2.2,0.1,4.5-0.3,6.7,0.3c0.1,0,0.3,0.1,0.3,0.1
				c0.7-0.9,1.7-0.4,2.5-0.4c1.6-0.1,3.2,0,4.8,0c0.3,0,0.8-0.3,1,0.4c0,0.2,0.2,0,0.3,0c1.8-0.7,3.7-0.5,5.5-0.3
				c0.8,0.1,1.6-0.1,2.4-0.1h2.7c1.6,0,1.6,0,1.7,1.6c-0.1,1.5,0.1,2.9,0.4,4.3c0.5,1.7-0.5,3.4-2.1,3.9c-0.3,0.1-0.5,0.1-0.8,0.1
				c-1.5,0.3-3,0.3-4.6,0c-1.2-0.3-2.2,0.1-3.2,0.1c-4-0.1-8.1,0-12.2,0c-0.7,0-0.9-0.2-0.8-0.9c0-0.4,0-0.9,0-1.3
				c0-0.2,0-0.4-0.2-0.4s-0.3,0.2-0.3,0.4c0,0.5,0,1,0,1.5s-0.1,0.6-0.6,0.6c-1.1,0-2.2,0-3.3,0c-0.5,0-0.6-0.2-0.6-0.6
				c0-0.6,0.3-1.4-0.1-1.8s-1.1,0.2-1.7,0.1s-1,0.2-0.9,0.9c0,0.2,0,0.4,0,0.6c0.1,0.6-0.2,0.8-0.8,0.8c-1.3-0.1-2.7-0.1-4,0
				c-0.7,0-1.3-0.3-1.6-0.9c-0.3-0.5-0.6-0.5-1,0c-0.5,0.7-1.4,1.1-2.3,1c-2.2-0.1-4.3,0-6.5,0c-0.7,0-0.9-0.2-0.8-0.9
				C32.6,58.4,32.6,57,32.6,55.7z"/>
			<path class="st0" d="M68.2,46.8c0-1.8,0-3.5,0-5.3c0-0.6,0.1-0.8,0.8-0.9c1.1-0.2,2.2,0.4,2.5,1.5c0.5,1.1,1.2,2.1,2,3.1
				c0-1.2,0-2.5,0-3.7c0-0.8,0.3-0.7,0.9-0.8s0.8,0.1,0.8,0.7c0,1.8,0,3.6,0,5.3c0,0.6-0.2,0.7-0.7,0.7c-0.9,0.2-1.8-0.3-2.2-1.2
				c-0.7-1.3-1.5-2.6-2.4-3.7c0,1.2,0,2.4,0,3.6c0,1.4,0.2,1.2-1.2,1.2c-0.3,0-0.6,0-0.9,0c-0.8,0.1-1.5-0.1-1.6-1
				c0-0.3-0.3-0.4-0.6-0.4c-0.5,0-1.1,0-1.6,0c-0.9-0.1-1.6,0-1.8,1.1c0,0.3-0.3,0.5-0.6,0.4s-0.6,0-1,0c-1.3,0-2.6-0.1-3.2-1.4
				c-0.7-1.4-0.7-3,0.1-4.4c0.5-0.8,1.4-1.3,2.3-1.2c0.4,0,0.8,0,1.1,0c0.7-0.1,1,0.2,0.9,0.9c0,0.5-0.2,0.7-0.7,0.6
				c-0.1,0-0.3,0-0.4,0c-2.2-0.2-2.4,1.1-2.2,2.8c0.2,0.9,1.1,1.4,2,1.2c0,0,0.1,0,0.1,0c0.3-0.1,0.3-0.3,0.4-0.5
				c0.6-1.4,1.2-2.8,1.7-4.1c0.1-0.5,0.6-0.8,1.1-0.7c1.7,0,1.7,0,2.4,1.6l1.9,4.6L68.2,46.8z"/>
			<path class="st0" d="M31,42.5c0,1.4,0,2.8,0,4.2c0,0.5-0.1,0.8-0.7,0.7c-0.5,0-0.9,0-1.4,0c-0.9,0.1-1.5,0-1.8-1
				c-0.1-0.4-0.4-0.5-0.7-0.5c-0.5,0-1,0-1.5,0c-0.8-0.2-1.6,0.2-1.8,1c-0.3,0.8-1.1,0.2-1.9,0.4c0.7-1.6,1.3-3,1.9-4.5
				c0.2-0.5,0.4-1,0.6-1.5c0.1-0.7,0.7-1.1,1.4-1c0,0,0,0,0.1,0c1.8,0.1,1.3-0.3,2,1.4s1.4,3.3,2.2,4.9c0-1.8,0-3.5,0-5.3
				c0-0.7,0.1-0.9,0.9-1c1.1-0.3,2.2,0.4,2.4,1.4c0,0,0,0.1,0,0.1c0.4,1.1,0.9,2.2,1.5,3.3c0.6-1.4,1.2-2.7,1.6-4
				c0.2-0.5,0.7-0.8,1.2-0.7c1.8,0.1,1.8,0,1.8,1.8c0,1.4,0,2.9,0,4.3c0,0.6-0.1,0.9-0.8,0.9s-0.8-0.2-0.8-0.8
				c0.1-1.4,0-2.8-0.2-4.2c-0.3,0.7-0.6,1.4-1,2.1s-0.7,1.4-0.9,2.1c-0.1,0.5-0.5,0.8-1,0.8c-0.5,0.1-1-0.3-1.1-0.8
				c-0.6-1.4-1.2-2.8-1.8-4.2L31,42.5z"/>
			<path class="st0" d="M52.2,44.2c0.8,0.8,1.1,1.9,0.9,3c-0.1,0.4-0.5,0.3-0.7,0.3s-0.6,0.2-0.7-0.3c0-0.1,0-0.1,0-0.2
				c-0.3-2-0.9-2.4-2.9-2c-0.3,0-0.4,0.2-0.4,0.5c0,0.3,0,0.7,0,1c0.1,0.9-0.3,1.1-1,1c-0.5,0-0.7-0.2-0.7-0.7c0-1.9,0-3.7,0-5.6
				c0-0.5,0.2-0.7,0.7-0.7c1.2,0,2.4,0,3.6,0c0.9,0,1.7,0.1,2.1,1.2C53.5,42.6,53.1,43.7,52.2,44.2z"/>
			<path class="st2" d="M40.1,44c0-0.9,0-1.9,0-2.8c0-0.4,0.1-0.6,0.6-0.6c1.5,0,2.9,0,4.4,0c0.7,0,0.5,0.4,0.6,0.8s0,0.8-0.6,0.7
				c-0.9,0-1.8,0-2.7,0c-0.5,0-0.5,0.2-0.5,0.6s0,0.7,0.5,0.7c0.8,0,1.5,0,2.3,0c0.5,0,0.9-0.1,0.9,0.7s-0.4,0.7-0.9,0.7
				c-0.8,0-1.5,0-2.2,0c-0.6,0-0.6,0.3-0.6,0.7s0,0.7,0.6,0.7c0.9,0,1.8,0,2.7,0c0.6,0,0.6,0.3,0.6,0.8s0.1,0.8-0.6,0.8
				c-1.4,0-2.9,0-4.3,0c-0.6,0-0.7-0.2-0.6-0.7C40.1,45.9,40.1,45,40.1,44z"/>
			<path class="st3" d="M54.2,43.9c0-0.9,0-1.9,0-2.8c0-0.8,0.5-0.5,0.9-0.5s0.8-0.2,0.8,0.5c0,2,0,3.9,0,5.9c0,0.7-0.5,0.5-0.8,0.5
				s-0.9,0.2-0.9-0.5C54.3,45.9,54.2,44.9,54.2,43.9z"/>
			<path class="st0" d="M42.7,57c-0.2,0.3-0.4,0.5-0.6,0.7c-0.8,1.3-2.3,1.9-3.8,1.6c-1.1-0.1-2.2-0.1-3.4,0c-0.5,0-0.7-0.1-0.7-0.6
				c0-1.9,0-3.8,0-5.7c0-0.5,0.2-0.6,0.7-0.6c1.8,0,3.5,0,5.3,0c0.5,0,0.8,0.3,1,0.6c0.5,0.5,1,1.5,1.5,1.5s1.1-0.9,1.5-1.5
				c0.4-0.4,0.9-0.7,1.5-0.6c1.4,0,2.8,0,4.1,0c0.5,0,0.9,0,1.4,0.2c0.9,0.1,1.5,0.9,1.5,1.8c0.1,1-0.5,1.9-1.4,2.2
				c-0.9,0.2-1.8,0.3-2.7,0.2c-0.5,0-0.8,0.1-0.8,0.7c0,1.9,0,1.8-1.9,1.9c-0.9,0.1-1.7-0.3-2.2-1C43.4,57.9,43.1,57.4,42.7,57z"/>
			<path class="st0" d="M59.1,56c0.9,0.7,1.3,1.8,1,2.9c-0.2,0.5-0.7,0.2-1,0.3s-0.6,0.1-0.7-0.3c0-0.1,0-0.1,0-0.2
				c-0.2-2-0.7-2.4-2.9-2.1c-0.3,0-0.4,0.2-0.4,0.4c0,0.4,0,0.9,0,1.3c0.1,0.8-0.2,0.9-0.9,0.9s-0.8-0.2-0.8-0.8c0-1.8,0-3.7,0-5.5
				c0-0.6,0.2-0.8,0.7-0.7c1.2,0,2.5,0,3.7,0c0.9-0.1,1.7,0.4,2,1.2c0.4,0.9,0.1,1.9-0.7,2.4C59.1,55.8,59.1,55.9,59.1,56z"/>
			<path class="st4" d="M61.1,55.8c0-1,0-2,0-2.9c0-0.4,0.1-0.6,0.6-0.6c1.5,0,2.9,0,4.4,0c0.6,0,0.5,0.4,0.5,0.8s0.1,0.8-0.5,0.7
				c-0.9,0-1.8,0-2.8,0c-0.5,0-0.6,0.1-0.6,0.6s0.1,0.7,0.6,0.7c0.8,0,1.6,0,2.4,0c0.5,0,0.8,0,0.8,0.7s-0.2,0.7-0.7,0.7
				c-0.8,0-1.6,0-2.4,0c-0.6,0-0.6,0.3-0.6,0.8s0.2,0.7,0.6,0.7c0.9,0,1.8,0,2.7,0c0.7,0,0.6,0.4,0.6,0.8s0,0.7-0.6,0.7
				c-1.5,0-2.9,0-4.4,0c-0.5,0-0.6-0.2-0.6-0.6C61.1,57.7,61.1,56.8,61.1,55.8z"/>
			<path class="st2" d="M70.9,52.2H72c0.9,0,1.2,0.4,1,1.3c-0.1,0.4-0.3,0.3-0.6,0.3c-0.8,0-1.7,0-2.5,0c-0.3,0-0.8-0.1-0.8,0.5
				s0.4,0.6,0.8,0.7c0.6,0,1.2,0,1.7,0.1c0.9,0,1.6,0.7,1.6,1.6c0.1,1.2-0.2,2-1.2,2.3c-1.4,0.3-2.8,0.4-4.2,0.2
				c-0.6,0-0.2-0.6-0.3-0.9s0.1-0.5,0.5-0.5h2.6c0.4,0,0.9,0,1-0.6s-0.4-0.7-0.9-0.8c-0.6,0-1.1-0.1-1.7-0.2c-1-0.1-1.7-1-1.6-2
				c0-1,0.8-1.9,1.8-2C69.8,52.2,70.4,52.2,70.9,52.2L70.9,52.2z"/>
			<path class="st0" d="M77.4,52.2c0.4,0,0.7,0,1.1,0c0.8-0.1,0.9,0.2,0.9,1s-0.2,0.7-0.8,0.7c-0.8,0-1.7,0-2.5,0
				c-0.4,0-0.7,0.1-0.7,0.6s0.3,0.5,0.6,0.6c0.5,0,1.1,0,1.6,0.1c1,0,1.9,0.8,2,1.9c0.1,1.1-0.7,2-1.7,2.2c-1.2,0.2-2.5,0.2-3.7,0.1
				c-0.6,0-0.3-0.5-0.4-0.8s0-0.7,0.5-0.7c0.9,0,1.7,0,2.6,0c0.5,0,0.9-0.1,0.9-0.6s-0.4-0.7-0.9-0.7s-1.1,0-1.6-0.2
				c-1-0.1-1.8-1-1.7-2c0,0,0-0.1,0-0.1c0-1.1,0.9-1.9,2-1.9C76.3,52.2,76.8,52.2,77.4,52.2L77.4,52.2z"/>
			<path class="st5" d="M65.2,44.4C65.2,44.4,65.2,44.4,65.2,44.4c-2.3,0.3-2.3,0.3-1.4-1.7c0.1-0.2,0.2-0.5,0.4-0.8
				C64.6,42.7,65,43.5,65.2,44.4z"/>
			<path class="st6" d="M25.3,41.8c0.3,0.8,0.6,1.5,0.8,2.2c0.2,0.4,0,0.5-0.4,0.5c-1.6,0.1-1.6,0.1-1-1.4
				C24.9,42.7,25.1,42.3,25.3,41.8z"/>
			<path class="st7" d="M49.7,43.6h-0.4c-0.5,0-0.9-0.3-1-0.8c0-0.2,0-0.4,0.1-0.6c0-0.1,0.1-0.2,0.2-0.2c0.9-0.1,1.7-0.1,2.5,0.1
				c0.3,0.1,0.4,0.4,0.3,0.7c-0.1,0.3-0.2,0.6-0.6,0.7S50.1,43.5,49.7,43.6L49.7,43.6z"/>
			<path class="st8" d="M37.9,53.8c0.1,0,0.2,0,0.3,0c1.7-0.4,2.4,0.8,3.2,1.8c0.2,0.3,0.1,0.4-0.1,0.7c-0.4,0.5-0.9,0.9-1.3,1.4
				c-0.2,0.2-0.4,0.3-0.7,0.3c-1,0-2.1,0-3.1,0c-0.6,0-0.6-0.3-0.5-0.7s-0.2-0.8,0.5-0.8c0.8,0,1.7,0,2.5,0c0.5,0,0.6-0.2,0.6-0.7
				s0-0.8-0.6-0.7c-0.8,0-1.7,0-2.5,0c-0.5,0-0.5-0.3-0.5-0.6s0-0.7,0.5-0.6S37.3,53.8,37.9,53.8z"/>
			<path class="st9" d="M46.2,58.6c-0.8-0.9-1.5-1.7-2.2-2.5c-0.2-0.2-0.2-0.4,0-0.7l2.2-2.4L46.2,58.6z"/>
			<path class="st8" d="M49.3,55.5h-0.3c-0.5,0.1-1-0.3-1.1-0.9c0-0.3,0-0.5,0.2-0.7c0,0,0.1-0.1,0.1-0.1c0.9-0.2,1.9-0.1,2.8,0.3
				c0.3,0.3,0.3,0.8,0,1.1c-0.1,0.1-0.3,0.2-0.5,0.2C50,55.5,49.6,55.5,49.3,55.5L49.3,55.5z"/>
			<path class="st10" d="M56.6,55.4c-0.2,0-0.3,0-0.5,0c-0.6,0.1-0.9-0.1-0.9-0.8s0.3-0.8,0.9-0.8s1,0,1.5,0s0.8,0.2,0.8,0.7
				s-0.3,0.9-0.8,0.9L56.6,55.4L56.6,55.4z"/>
		</g>
	</g>
</g>
</svg>
