<svg id="Layer_1" data-name="Layer 1" xmlns="http://www.w3.org/2000/svg" viewBox="0 0 100 100"><defs><style>.cls-1{fill:#2f556d;}.cls-2{fill:#13232d;}.cls-3{fill:#fefefe;}.cls-4{fill:#4cd38e;}.cls-5{fill:#fedc12;}.cls-6{fill:#40c5c2;}.cls-7{fill:#f2f9f8;}.cls-8{fill:#f7fbfa;}.cls-9{fill:#f6faf9;}.cls-10{fill:#e6f4f0;}.cls-11{fill:#f7fdf9;}</style></defs><path class="cls-1" d="M97.38,50a48.83,48.83,0,0,1-.57,7.31A47.37,47.37,0,0,1,50,97.38l-1.31,0A47.38,47.38,0,1,1,97.38,50Z"/><path class="cls-2" d="M93.85,66.52q-14.32-14-28.67-28c-.1-.11-.16-.32-.39-.24a.38.38,0,0,0-.12.21c-.21.76-.46,1-1.27,1-.46,0-.92,0-1.39,0-.22,0-.45,0-.59.2a.62.62,0,0,0-.07.19c-.05,1.27,0,2.54,0,3.82,0,.16,0,.35.23.4a.24.24,0,0,0,.06-.11V44c-.18.24,0,.45.09.65l2.45,4.44c.33.54.58,1.12.92,1.64a.54.54,0,0,0,.07.13,5.28,5.28,0,0,1,.27.53.54.54,0,0,0,.07.13c.16.2.22.49.54.55a.69.69,0,0,0,.2,0,11.72,11.72,0,0,1,5.6-.5,11,11,0,0,1,7,3.88,11,11,0,0,1-1.75,15.89,10.94,10.94,0,0,1-8.28,2.27A11.12,11.12,0,0,1,60,67.71a12.91,12.91,0,0,1-1.33-4.39c-.06-.46-.38-.53-.78-.53-2.33,0-4.64,0-7,0l-.15-.09a4.14,4.14,0,0,1-1.59-1.46c-1.54-1.76-3-3.58-4.55-5.32-.51-.59-1-1.22-1.52-1.78L43,54c-.26-.33-.56-.64-.81-1-.74-.89-1.49-1.76-2.24-2.64-1.13-1.31-2.24-2.65-3.39-3.94a.28.28,0,0,0-.37,0c-.66,1.79-1.2,3.62-1.82,5.42a.47.47,0,0,0,0,.35,1.59,1.59,0,0,0,.5.26,11,11,0,0,1,6.29,11.83,11.27,11.27,0,0,1-11.86,9.31,11.52,11.52,0,0,1-5.84-1.94c-.16-.11-.3-.31-.55-.18a4.83,4.83,0,0,0,.37.42L41.85,90.1c1.16,1.13,4.07,4.27,6.84,7.26l1.31,0A47.4,47.4,0,0,0,94.25,67,5,5,0,0,0,93.85,66.52ZM61.63,40.24h0s0,0,0,0,0,0,0,0h0Z"/><path class="cls-3" d="M61.61,44.13c.81,1.47,1.61,2.95,2.41,4.42.1.18.18.36.27.54a4.35,4.35,0,0,0,.94,1.71h0c0,.13,0,.19-.13.25s0,.05,0,0c.21,0,.27.24.42.34h0a1,1,0,0,0,.65,1,13.2,13.2,0,0,1,1.08,1.8c1,1.85,2.06,3.65,3,5.53,0,.14,0,.3.17.38a.69.69,0,0,1,.12.31c0,.26.19.37.34.52.24.38.48.77.21,1.23,0,.12-.25.08-.26.24a.14.14,0,0,1-.09.08c-.22,0-.07.2-.19.25a.64.64,0,0,1-.4.13c-3.24,0-6.47,0-9.71,0-3,0-6,0-9,0a1.32,1.32,0,0,1-.71-.09.82.82,0,0,1-.67-.32l-5.49-6.49a2.28,2.28,0,0,0-.7-1.09c-.09-.08-.24-.16-.23-.26.08-.54-.31-.43-.61-.46h0a1.66,1.66,0,0,0-.45-.69c-.1-.07-.18-.15-.1-.29s.06-.08.12-.1,0,.05-.09.07a.31.31,0,0,1-.32,0q-2.41-2.81-4.82-5.62l-.77-.94c-.07-.08-.09-.28-.27-.1-.57,1.78-1.15,3.56-1.72,5.34a2.85,2.85,0,0,0-.11.39,1,1,0,0,1-.11.72c-.18.56-.38,1.11-.56,1.67C33,57.29,32,60,31.16,62.68a1.23,1.23,0,0,1-.93,1,1.16,1.16,0,0,1-1.39-1.51c.15-.61.37-1.19.57-1.79.7-2.13,1.39-4.27,2.1-6.4.21-.56.37-1.14.56-1.71a1.21,1.21,0,0,1,.36-.71L34.92,44c1.81-5.51,3.63-11,5.42-16.56a1.51,1.51,0,0,1,1-1.1c.08-.08.19-.06.29-.06h6.4c.1,0,.21,0,.29.07a1.34,1.34,0,0,1,.94.71,1,1,0,0,1-.43,1.36,1.85,1.85,0,0,1-1,.19H43.2c-.84,0-.85,0-1.1.76q-2.16,6.56-4.3,13.13c-.18.52-.14.57.5.57H58.66a2.82,2.82,0,0,0,.41,0,.69.69,0,0,0,.15-.07,24.77,24.77,0,0,0,.07-2.72c0-.25-.06-.51.14-.72a3.22,3.22,0,0,1,2.08.05c0,1.31,0,2.62,0,3.94,0,.17-.07.37.07.53,0,0,0,0,0,0S61.62,44.13,61.61,44.13Z"/><path class="cls-1" d="M59.22,43.21l-.56,0H38c-.58,0-.59,0-.41-.55q2.25-6.85,4.48-13.7c.13-.4.29-.56.74-.55,1.74,0,3.48,0,5.22,0,1,0,1.37-.41,1.27-1.38.24,0,.3.21.43.34q4.65,4.53,9.3,9.09a3.56,3.56,0,0,1,.74.76c-.19.2-.45.14-.68.14-1.18,0-2.36,0-3.54,0-.18.06-.35,0-.54,0,.09,0,.2,0,.22.1s-.22.21-.35.29a.8.8,0,0,0-.41.9.9.9,0,0,0,.79.71,4.92,4.92,0,0,0,.77,0h2.63c.23,0,.49,0,.65.19.08,1.1,0,2.2,0,3.3A.37.37,0,0,1,59.22,43.21Z"/><path class="cls-4" d="M33.69,54.57l.78-2.37A10.87,10.87,0,0,1,40,57a11.25,11.25,0,0,1-8.62,16.76,11.44,11.44,0,0,1-8.19-2.09,1.67,1.67,0,0,0-.23-.12,11.66,11.66,0,0,1-3.82-5.17,11.24,11.24,0,0,1,8.81-14.9,11.66,11.66,0,0,1,4.52.08c-.27.81-.53,1.61-.8,2.41a10.69,10.69,0,0,1-1.79,0,8.39,8.39,0,0,0-6.26,2.62,8,8,0,0,0-2.38,5,1.75,1.75,0,0,1,0,.32,2.23,2.23,0,0,0,0,1.09,1.72,1.72,0,0,1,0,.39A8.18,8.18,0,0,0,24.06,69a8.36,8.36,0,0,0,6,2.21,8.71,8.71,0,0,0,7.4-4.1,8.56,8.56,0,0,0-.63-9.93A9.08,9.08,0,0,0,34.14,55,.84.84,0,0,1,33.69,54.57Z"/><path class="cls-5" d="M59.22,39.59l-3.66,0c-.78,0-1.21-.3-1.3-.88s.22-1,1-1.22a.38.38,0,0,1,.28-.09c1.48,0,3-.08,4.44,0h3.41c.16,0,.34-.06.5.06a1.31,1.31,0,0,1,.94.78c0,.92-.34,1.31-1.29,1.32l-2,0H59.42a.13.13,0,0,1-.2,0Z"/><path class="cls-6" d="M48.34,26.35h-7c-.12,0-.24-.1,0-.11h7s.09,0,.1,0S48.39,26.32,48.34,26.35Z"/><path class="cls-4" d="M67.19,54.26l-1.06-1.83c-.15-.1-.27-.21-.17-.41a11.58,11.58,0,0,1,15.35,7.9,11.31,11.31,0,0,1-9.47,13.76,11.46,11.46,0,0,1-13.23-10l0-.2a.75.75,0,0,1,0-.53A18.87,18.87,0,0,1,61,62.83a.86.86,0,0,1,.17,0,.25.25,0,0,1,.11.12,9.42,9.42,0,0,0,.52,2.52,8.53,8.53,0,0,0,7,5.62A8.78,8.78,0,0,0,78.3,65.7a8.53,8.53,0,0,0-3.2-10.25,9.08,9.08,0,0,0-7.35-1.22C67.56,54.27,67.39,54.36,67.19,54.26Z"/><path class="cls-7" d="M61.16,62.83h0l0,0c-.83.11-1.67,0-2.5,0H51.31c-.18,0-.38.06-.55-.05l0-.08,4.39,0H70.3a.15.15,0,0,1-.07.17,1.48,1.48,0,0,1-.66.07H61.9A1,1,0,0,1,61.16,62.83Z"/><path class="cls-8" d="M43,54.13c.5-.28.81-.36.73.43,0,.19.52.43.66.76s.31.37.15.62A20.44,20.44,0,0,1,43,54.13Z"/><path class="cls-9" d="M65.23,50.8c-.26,0-.45-.12-.5-.45a2.46,2.46,0,0,0-.4-.79c-.09-.16-.17-.3,0-.47A14.22,14.22,0,0,1,65.23,50.8Z"/><path class="cls-9" d="M66,52l.17.41c-.46-.06-.81-.68-.58-1Z"/><path class="cls-8" d="M42.47,53.13a7.42,7.42,0,0,0,.49.62c.13.13,0,.25,0,.37a5.65,5.65,0,0,1-.84-1A.29.29,0,0,1,42.47,53.13Z"/><path class="cls-9" d="M65.55,51.4,65,51.11h0l.21-.31A1.59,1.59,0,0,1,65.55,51.4Z"/><path class="cls-10" d="M36.3,46.47c-.11-.06-.08-.15,0-.17s.25.11.26.27C36.48,46.53,36.42,46.43,36.3,46.47Z"/><path class="cls-2" d="M33.69,54.57a8.72,8.72,0,0,1-2.85,16.68,8.9,8.9,0,0,1-9.75-7.41,1.76,1.76,0,0,1,0-.4c.1-.21,0-.44,0-.57a.19.19,0,0,1-.06.2,2.21,2.21,0,0,1,0-1.17.31.31,0,0,1,.06.3,1.67,1.67,0,0,0,0-.57,8.13,8.13,0,0,1,2.85-5.55,8.93,8.93,0,0,1,7.71-2.14l-2.46,7.6c-.06.19-.13.38-.18.58a1,1,0,0,0,.62,1.4A1.08,1.08,0,0,0,31,62.73L32.55,58Z"/><path class="cls-2" d="M70.26,62.82a.2.2,0,0,1,0-.08c.13,0,.2-.08.29-.12a.38.38,0,0,1,.24-.17h0a.25.25,0,0,1,.17-.22c.3-.5-.06-.89-.21-1.31a.77.77,0,0,1-.3-.5c-.12-.07-.06-.21-.12-.31s-.1-.22-.19-.3l-2.65-4.88c-.12-.22-.22-.44-.34-.67a8.74,8.74,0,1,1-6,8.93c0-.08,0-.17,0-.25a1.18,1.18,0,0,1,.56,0h8C69.94,62.89,70.12,63,70.26,62.82Z"/><path class="cls-2" d="M58.48,45.64q-1.95,3.59-3.91,7.16l-3.69,6.72c-.13.23-.18.48-.5.11q-6-7.05-12-14.06l-.08-.13a1.06,1.06,0,0,1,.56,0c6.31,0,12.62,0,18.92,0C58.09,45.37,58.34,45.37,58.48,45.64Z"/><path class="cls-2" d="M58.72,60.7H52.61c2.62-4.75,5.21-9.45,7.85-14.26L64.06,53a6.53,6.53,0,0,1-1.3,1A11,11,0,0,0,59,60.11C58.92,60.32,58.92,60.55,58.72,60.7Z"/><path class="cls-2" d="M65.24,55.17l3.09,5.54h-7c-.12-.16,0-.33,0-.49a8.75,8.75,0,0,1,3.5-4.9C65,55.23,65.07,55.13,65.24,55.17Z"/><path class="cls-4" d="M65.24,55.17a8.91,8.91,0,0,0-3.92,5.54h-2.6a11.14,11.14,0,0,1,4.89-7.47,4,4,0,0,1,.45-.25Z"/><path class="cls-11" d="M58.19,45.26c-.15,0-.3,0-.45,0q-9.27,0-18.52,0a1,1,0,0,1-.51,0H57.53c.28,0,.6.07.67-.37C58.34,45.06,58.21,45.15,58.19,45.26Z"/><path class="cls-11" d="M57.74,45.11H38.41V45H57.76Z"/><path class="cls-7" d="M62.15,62.55h7.17v.05H62.13Z"/><path class="cls-7" d="M51.39,62.56h6.38v0H51.38Z"/><path class="cls-11" d="M58.52,45.66c.2-.31,0-.37-.26-.4l.35-.39c.18.18.07.41.09.61a2,2,0,0,1,0,.35C58.55,45.86,58.62,45.67,58.52,45.66Z"/><path class="cls-7" d="M70.49,60.42a.84.84,0,0,1,.3.5C70.53,60.84,70.32,60.74,70.49,60.42Z"/><path class="cls-7" d="M71,62.23a.28.28,0,0,1-.17.22c0-.11-.19-.21-.08-.34S70.92,62.19,71,62.23Z"/><path class="cls-7" d="M70.18,59.81l.19.3C69.93,60.23,70.23,59.92,70.18,59.81Z"/><path class="cls-7" d="M70.83,62.45c0,.1-.11.18-.24.17l-.15-.17C70.57,62.34,70.7,62.48,70.83,62.45Z"/><path class="cls-8" d="M42.87,53l-.4.17c0-.1.05-.19.17-.19A.74.74,0,0,1,42.87,53Z"/><path class="cls-9" d="M65,51.11c0,.08,0,.17-.14.15s-.06-.08-.06-.12.13,0,.2,0Z"/><path class="cls-2" d="M21.07,61.63c.17.22.08.46,0,.71l0-.44Z"/><path class="cls-2" d="M21.05,63.07l0-.34c.06.25.16.49,0,.71Z"/><path class="cls-4" d="M58.6,62.94l0-.11a16.31,16.31,0,0,1,2.52,0c-.39.21-.8.07-1.2.09S59,62.94,58.6,62.94Z"/></svg>