<svg id="Layer_1" data-name="Layer 1" xmlns="http://www.w3.org/2000/svg" viewBox="0 0 100 100"><defs><style>.cls-1{fill:#fff;}.cls-2{fill:none;stroke:#244157;stroke-miterlimit:10;stroke-width:4px;}</style></defs><circle class="cls-1" cx="50" cy="50" r="47.38"/><circle class="cls-2" cx="50" cy="50" r="41.57"/><path class="cls-2" d="M41.56,39.08l6.53-13.17a2.16,2.16,0,0,1,3.88,0L58.45,39.1a2.18,2.18,0,0,0,1.63,1.19l14.54,2.14a2.16,2.16,0,0,1,1.2,3.69L65.27,56.36a2.16,2.16,0,0,0-.62,1.91l2.46,14.5A2.16,2.16,0,0,1,64,75L51,68.18a2.16,2.16,0,0,0-2,0L35.94,75a2.17,2.17,0,0,1-3.14-2.29l2.51-14.48a2.18,2.18,0,0,0-.62-1.92L24.18,46a2.17,2.17,0,0,1,1.2-3.69l14.55-2.09A2.13,2.13,0,0,0,41.56,39.08Z"/></svg>