<svg id="Layer_1" data-name="Layer 1" xmlns="http://www.w3.org/2000/svg" viewBox="0 0 100 100"><defs><style>.cls-1{fill:#2f556d;}.cls-2{fill:#13232d;}.cls-3{fill:#1a1a1a;}.cls-4{fill:#414143;}.cls-5{fill:#b3b3b3;}.cls-6{fill:#221f20;}.cls-7{fill:#231f20;}.cls-8{fill:#fac008;}.cls-9{fill:#d72030;}.cls-10{fill:#f1f1f1;}</style></defs><path class="cls-1" d="M97.38,50a48.84,48.84,0,0,1-.56,7.31A47.42,47.42,0,1,1,97.38,50Z"/><path class="cls-2" d="M96.82,57.31A47.42,47.42,0,0,1,67.74,93.93L23.89,56.09l48.73-9.37Z"/><path class="cls-3" d="M90.12,52.64c-.1-.66-.07-1.33-.17-2,0-.3,0-.64-.25-.87-.13,0-.25-.09-.38-.12-2.87-.66-5.74-1.33-8.62-2a4,4,0,0,1-2-1.09L75,42.92a5.64,5.64,0,0,0-4-1.64c-6.52-.1-13-.17-19.57-.14-6.18,0-12.37.09-18.54.56a6.14,6.14,0,0,0-4.19,1.68c-1.32,1.32-2.77,2.5-4.16,3.75a2.84,2.84,0,0,1-1.27.67c-1.55.36-3.1.71-4.64,1.09s-3,.64-4.5,1.11c-.06.07-.15.12-.18.21-.26.77-.53,1.54-.76,2.32a.5.5,0,0,0,.1.52.84.84,0,0,0,.53.15c1.19,0,2.39,0,3.58,0a1.11,1.11,0,0,0,.6-.39,3.43,3.43,0,0,1,4.55-.19,2.37,2.37,0,0,0,.88.58,5,5,0,0,0,1,0H75.2a5.42,5.42,0,0,0,.9,0,1.69,1.69,0,0,0,.84-.52,3.46,3.46,0,0,1,4.72.15,1.1,1.1,0,0,0,.61.37c2.44.07,4.88,0,7.32,0A.81.81,0,0,0,90,53.1.44.44,0,0,0,90.12,52.64ZM37,47.36c0,.43-.16.59-.59.59l-10,0c-.22,0-.48.09-.6-.18s.12-.44.29-.6c1.14-1.13,2.27-2.27,3.43-3.38a5.43,5.43,0,0,1,1.34-.84,4.18,4.18,0,0,1,2-.5c1.19-.08,2.39-.11,3.58-.18.44,0,.6.13.59.57C37,44.33,37,45.84,37,47.36Zm29.3.53H50l-12.09,0a5,5,0,0,1-.07-1.33c0-1.25,0-2.51,0-3.76,0-.46.17-.6.62-.61q8.41-.28,16.82-.23,5.24,0,10.47.2c.54,0,.67.2.66.7,0,1.51,0,3,0,4.54C66.42,47.55,66.46,47.74,66.29,47.89Z"/><path class="cls-4" d="M37,47.36c0,.43-.16.59-.59.59l-10,0c-.22,0-.48.09-.6-.18s.12-.44.29-.6c1.14-1.13,2.27-2.27,3.43-3.38a5.43,5.43,0,0,1,1.34-.84,4.18,4.18,0,0,1,2-.5c1.19-.08,2.39-.11,3.58-.18.44,0,.6.13.59.57C37,44.33,37,45.84,37,47.36Z"/><path class="cls-4" d="M66.29,47.89H50l-12.09,0a5,5,0,0,1-.07-1.33c0-1.25,0-2.51,0-3.76,0-.46.17-.6.62-.61q8.41-.28,16.82-.23,5.24,0,10.47.2c.54,0,.67.2.66.7,0,1.51,0,3,0,4.54C66.42,47.55,66.46,47.74,66.29,47.89Z"/><path class="cls-5" d="M23.21,53H76.27c.15.2,0,.4,0,.57a3.23,3.23,0,0,0-.4,2.27c0,.11,0,.24-.15.2H23.89c-.13-.12-.1-.27-.09-.42a3.45,3.45,0,0,0-.48-2.13C23.23,53.39,23.08,53.24,23.21,53Z"/><path class="cls-6" d="M23.21,53c.12.4.47.66.57,1.07a3.81,3.81,0,0,1,.11,2,3.67,3.67,0,0,1-2.72,2.68,3.57,3.57,0,0,1-4.23-2.32c-.05-.13-.1-.25-.14-.37A1.3,1.3,0,0,1,16.6,55a2.66,2.66,0,0,1,.88-1.92,3.85,3.85,0,0,1,2.07-1.28A3.62,3.62,0,0,1,23.21,53Z"/><path class="cls-7" d="M75.68,56.08a4.67,4.67,0,0,1,.59-3,4.89,4.89,0,0,1,1.89-1.22,3.72,3.72,0,0,1,4,1.22,1.42,1.42,0,0,1,.65.92,3.41,3.41,0,0,1,0,2.12c0,.1-.1.2-.14.3a3.61,3.61,0,0,1-6.84.07C75.78,56.32,75.73,56.2,75.68,56.08Z"/><path class="cls-5" d="M82.8,56.08a1.71,1.71,0,0,1,0-.81A3.49,3.49,0,0,0,82.11,53l7.94,0a2.49,2.49,0,0,1,1.84,0c.83.11,1.07.41,1.1,1.25.06,1.54-.2,1.89-1.85,1.86C88.36,56.06,85.58,56.09,82.8,56.08Z"/><path class="cls-5" d="M17.48,53.05a3.81,3.81,0,0,0-.68,3c-1.43,0-2.87,0-4.3,0a2.3,2.3,0,0,1-2.25-2.19.75.75,0,0,1,.64-.89,5.92,5.92,0,0,1,2.37-.09c.17.15.39.11.59.12Z"/><path class="cls-8" d="M13.26,52.92a9,9,0,0,1-2.37.09,3.55,3.55,0,0,1,3.21-3C13.89,51,13.42,51.91,13.26,52.92Z"/><path class="cls-9" d="M91.89,53l-1.84,0c-.25-1.06-.2-2.16-.35-3.23.34.06.69.11,1,.2a1.29,1.29,0,0,1,1,1.18C91.81,51.78,91.84,52.39,91.89,53Z"/><path class="cls-10" d="M66.29,47.89H50l-12.09,0a5,5,0,0,1-.07-1.33c0-1.25,0-2.51,0-3.76,0-.46.17-.6.62-.61q8.41-.28,16.82-.23,5.24,0,10.47.2c.54,0,.67.2.66.7,0,1.51,0,3,0,4.54C66.42,47.55,66.46,47.74,66.29,47.89Z"/><path class="cls-10" d="M72.61,47.93c-1.59,0-3.18,0-4.77,0-.41,0-.56-.13-.56-.55,0-1.55,0-3.1,0-4.65,0-.43.15-.56.56-.54,1.05.07,2.09.12,3.14.15a3.42,3.42,0,0,1,2.18.88l4.48,4c.15.13.37.24.29.5s-.36.21-.57.21Z"/><path class="cls-10" d="M37,47.36c0,.43-.16.59-.59.59l-10,0c-.22,0-.48.09-.6-.18s.12-.44.29-.6c1.14-1.13,2.27-2.27,3.43-3.38a5.43,5.43,0,0,1,1.34-.84,4.18,4.18,0,0,1,2-.5c1.19-.08,2.39-.11,3.58-.18.44,0,.6.13.59.57C37,44.33,37,45.84,37,47.36Z"/><path class="cls-10" d="M18.83,55.22a1.5,1.5,0,0,1,1.53-1.5,1.52,1.52,0,0,1,1.51,1.58,1.52,1.52,0,1,1-3-.08Z"/><path class="cls-10" d="M77.72,55.23a1.48,1.48,0,0,1,1.53-1.51,1.58,1.58,0,0,1,1.51,1.61,1.52,1.52,0,1,1-3-.1Z"/></svg>