<svg id="Layer_1" data-name="Layer 1" xmlns="http://www.w3.org/2000/svg" xmlns:xlink="http://www.w3.org/1999/xlink" viewBox="0 0 360 100"><defs><style>.cls-1{fill:none;}.cls-2{fill:#2f556d;}.cls-3{fill:#13232d;}.cls-4{fill:#1a1a1a;}.cls-5{fill:#414143;}.cls-6{fill:#b3b3b3;}.cls-7{fill:#221f20;}.cls-8{fill:#231f20;}.cls-9{fill:#fac008;}.cls-10{fill:#d72030;}.cls-11{fill:#f1f1f1;}.cls-12{opacity:0.8;}.cls-13{clip-path:url(#clip-path);}.cls-14{fill:#fefefe;}.cls-15{fill:#ecc111;}.cls-16{fill:#333;}.cls-17{fill:#f7fdf9;}</style><clipPath id="clip-path"><circle class="cls-1" cx="45.53" cy="50" r="35.67"/></clipPath></defs><path class="cls-2" d="M227.38,50a48.84,48.84,0,0,1-.56,7.31,47.42,47.42,0,1,1,.56-7.31Z"/><path class="cls-3" d="M226.82,57.31a47.42,47.42,0,0,1-29.08,36.62L153.89,56.09l48.73-9.37Z"/><path class="cls-4" d="M220.12,52.64c-.1-.66-.07-1.33-.17-2,0-.3,0-.64-.25-.87-.13,0-.25-.09-.38-.12-2.87-.66-5.74-1.33-8.62-2a4,4,0,0,1-2-1.09L205,42.92a5.64,5.64,0,0,0-4-1.64c-6.52-.1-13-.17-19.57-.14-6.18,0-12.37.09-18.54.56a6.14,6.14,0,0,0-4.19,1.68c-1.32,1.32-2.77,2.5-4.16,3.75a2.84,2.84,0,0,1-1.27.67c-1.55.36-3.1.71-4.64,1.09s-3,.64-4.5,1.11c-.06.07-.15.12-.18.21-.26.77-.53,1.54-.76,2.32a.5.5,0,0,0,.1.52.84.84,0,0,0,.53.15c1.19,0,2.39,0,3.58,0a1.11,1.11,0,0,0,.6-.39,3.43,3.43,0,0,1,4.55-.19,2.37,2.37,0,0,0,.88.58,5,5,0,0,0,.95,0H205.2a5.42,5.42,0,0,0,.9,0,1.69,1.69,0,0,0,.84-.52,3.46,3.46,0,0,1,4.72.15,1.1,1.1,0,0,0,.61.37c2.44.07,4.88,0,7.32,0a.81.81,0,0,0,.43-.11A.44.44,0,0,0,220.12,52.64ZM167,47.36c0,.43-.16.59-.59.59l-10,0c-.22,0-.48.09-.6-.18s.12-.44.29-.6c1.14-1.13,2.27-2.27,3.43-3.38a5.43,5.43,0,0,1,1.34-.84,4.18,4.18,0,0,1,2-.5c1.19-.08,2.39-.11,3.58-.18.44,0,.6.13.59.57C167,44.33,167,45.84,167,47.36Zm29.3.53H180l-12.09,0a5,5,0,0,1-.07-1.33c0-1.25,0-2.51,0-3.76,0-.46.17-.6.62-.61q8.42-.28,16.82-.23,5.24,0,10.47.2c.54,0,.67.2.66.7,0,1.51,0,3,0,4.54C196.42,47.55,196.46,47.74,196.29,47.89Z"/><path class="cls-5" d="M167,47.36c0,.43-.16.59-.59.59l-10,0c-.22,0-.48.09-.6-.18s.12-.44.29-.6c1.14-1.13,2.27-2.27,3.43-3.38a5.43,5.43,0,0,1,1.34-.84,4.18,4.18,0,0,1,2-.5c1.19-.08,2.39-.11,3.58-.18.44,0,.6.13.59.57C167,44.33,167,45.84,167,47.36Z"/><path class="cls-5" d="M196.29,47.89H180l-12.09,0a5,5,0,0,1-.07-1.33c0-1.25,0-2.51,0-3.76,0-.46.17-.6.62-.61q8.42-.28,16.82-.23,5.24,0,10.47.2c.54,0,.67.2.66.7,0,1.51,0,3,0,4.54C196.42,47.55,196.46,47.74,196.29,47.89Z"/><path class="cls-6" d="M153.21,53h53.06c.15.2,0,.4,0,.57a3.23,3.23,0,0,0-.4,2.27c0,.11,0,.24-.15.2H153.89c-.13-.12-.1-.27-.09-.42a3.45,3.45,0,0,0-.48-2.13C153.23,53.39,153.08,53.24,153.21,53Z"/><path class="cls-7" d="M153.21,53c.12.4.47.66.57,1.07a3.81,3.81,0,0,1,.11,2,3.67,3.67,0,0,1-2.72,2.68,3.57,3.57,0,0,1-4.23-2.32c-.05-.13-.1-.25-.14-.37a1.3,1.3,0,0,1-.2-1.11,2.66,2.66,0,0,1,.88-1.92,3.85,3.85,0,0,1,2.07-1.28A3.62,3.62,0,0,1,153.21,53Z"/><path class="cls-8" d="M205.68,56.08a4.67,4.67,0,0,1,.59-3,4.89,4.89,0,0,1,1.89-1.22,3.72,3.72,0,0,1,4,1.22,1.42,1.42,0,0,1,.65.92,3.41,3.41,0,0,1,0,2.12c-.05.1-.1.2-.14.3a3.61,3.61,0,0,1-6.84.07C205.78,56.32,205.73,56.2,205.68,56.08Z"/><path class="cls-6" d="M212.8,56.08a1.71,1.71,0,0,1,0-.81,3.49,3.49,0,0,0-.68-2.23l7.94,0a2.49,2.49,0,0,1,1.84,0c.83.11,1.07.41,1.1,1.25.06,1.54-.2,1.89-1.85,1.86C218.36,56.06,215.58,56.09,212.8,56.08Z"/><path class="cls-6" d="M147.48,53.05a3.81,3.81,0,0,0-.68,3c-1.43,0-2.87,0-4.3,0a2.3,2.3,0,0,1-2.25-2.19.75.75,0,0,1,.64-.89,5.92,5.92,0,0,1,2.37-.09c.17.15.39.11.59.12Z"/><path class="cls-9" d="M143.26,52.92a9,9,0,0,1-2.37.09,3.55,3.55,0,0,1,3.21-3C143.89,51,143.42,51.91,143.26,52.92Z"/><path class="cls-10" d="M221.89,53l-1.84,0c-.25-1.06-.2-2.16-.35-3.23.34.06.69.11,1,.2a1.29,1.29,0,0,1,1,1.18C221.81,51.78,221.84,52.39,221.89,53Z"/><path class="cls-11" d="M196.29,47.89H180l-12.09,0a5,5,0,0,1-.07-1.33c0-1.25,0-2.51,0-3.76,0-.46.17-.6.62-.61q8.42-.28,16.82-.23,5.24,0,10.47.2c.54,0,.67.2.66.7,0,1.51,0,3,0,4.54C196.42,47.55,196.46,47.74,196.29,47.89Z"/><path class="cls-11" d="M202.61,47.93c-1.59,0-3.18,0-4.77,0-.41,0-.56-.13-.56-.55,0-1.55,0-3.1,0-4.65,0-.43.15-.56.56-.54,1.05.07,2.09.12,3.14.15a3.42,3.42,0,0,1,2.18.88l4.48,4c.15.13.37.24.29.5s-.36.21-.57.21Z"/><path class="cls-11" d="M167,47.36c0,.43-.16.59-.59.59l-10,0c-.22,0-.48.09-.6-.18s.12-.44.29-.6c1.14-1.13,2.27-2.27,3.43-3.38a5.43,5.43,0,0,1,1.34-.84,4.18,4.18,0,0,1,2-.5c1.19-.08,2.39-.11,3.58-.18.44,0,.6.13.59.57C167,44.33,167,45.84,167,47.36Z"/><path class="cls-11" d="M148.83,55.22a1.5,1.5,0,0,1,1.53-1.5,1.52,1.52,0,0,1,1.51,1.58,1.52,1.52,0,1,1-3-.08Z"/><path class="cls-11" d="M207.72,55.23a1.48,1.48,0,0,1,1.53-1.51,1.58,1.58,0,0,1,1.51,1.61,1.52,1.52,0,1,1-3-.1Z"/><g class="cls-12"><g id="K2zuVB.tif"><g class="cls-13"><path class="cls-2" d="M41.88,13.67h7.35a7,7,0,0,0,2.49.22c6.86.39,12.48,3.56,17.62,7.79a36.29,36.29,0,0,1,11,15.79,27.11,27.11,0,0,1,1.24,7.47c0,.41-.14.85.14,1.23V53.8c-.35,1.14,0,2.39-.53,3.5-.67.45-1.23.17-1.78-.26-2.92-2.33-5.89-4.6-8.78-7-.72-.58-1.25-1.36-2.3-1.33-.86-.36-1.82-.11-2.7-.38-3.17-2.49-6.28-5.06-9.26-7.78a17.43,17.43,0,0,0-4.52-3.49,12.73,12.73,0,0,0-7.4-2.39c-2.11-.12-4.23,0-6.35,0a7.71,7.71,0,0,0-8,5.89,18,18,0,0,0-.92,5.26c0,2.14-.57,2.63-2.7,2.68-3.7.1-3.72.1-5,3.56-.61,1.63-1.25,3.25-1.81,4.9-.46,1.35-.25,1.78,1,2.48,2.34,2,4.85,3.84,7.24,5.79,6,4.89,12,9.66,18,14.49,1.69,1.35,3.38,2.69,5.06,4.05.59.48,1.22.95.83,1.87-.86.69-1.92.43-2.84.45a71.84,71.84,0,0,1-11-.3A29.55,29.55,0,0,1,26.75,81.6a37,37,0,0,1-14-14.75A28.93,28.93,0,0,1,9.25,52.92c0-3.1,0-6.19.22-9.3A29.13,29.13,0,0,1,14.3,30.24a36.73,36.73,0,0,1,18.61-15.1,27.27,27.27,0,0,1,7.74-1.33C41.06,13.78,41.5,14,41.88,13.67Z"/><path class="cls-14" d="M80.93,57.23c.54-1.08.22-2.36.8-3.43,0,10.46,0,20.92,0,31.37,0,1-.19,1.16-1.15,1.16q-35.76-.06-71.5,0,0-35.74,0-71.49c0-1,.19-1.17,1.16-1.16,10.55,0,21.1,0,31.65,0-1.73.36-3.47.64-5.18,1.08a36.22,36.22,0,0,0,3.44,70.91,31.22,31.22,0,0,0,11.64-.22,1.89,1.89,0,0,1,1.52-.9A35.35,35.35,0,0,0,79.72,59.67C80,58.8,80,57.76,80.93,57.23Z"/><path class="cls-14" d="M81.73,46.17c-.33-1.63-.59-3.29-1-4.9a36,36,0,0,0-31-27.37,1.47,1.47,0,0,1-.47-.23c10.5,0,21,0,31.51,0,.84,0,1,.17,1,1C81.71,25.17,81.73,35.67,81.73,46.17Z"/><path class="cls-3" d="M80.93,57.23a32.86,32.86,0,0,1-6.93,15A35.85,35.85,0,0,1,52.9,85.34a10.59,10.59,0,0,1-1.12.1,71.54,71.54,0,0,0-6.71-5.57Q33.4,70.45,21.66,61.11a13.48,13.48,0,0,1-1-1c.2-.72.82-.67,1.37-.72a6,6,0,0,1,1.27,0c1.53.18,2.32-.45,2.95-1.92a6.15,6.15,0,0,1,5.94-4,5.84,5.84,0,0,1,5.93,3.93c.65,1.74,1.65,2.07,3.28,2,3.1-.1,6.21-.05,9.31,0a1.9,1.9,0,0,0,2.07-1.48,6.16,6.16,0,0,1,6.16-4.45A6.45,6.45,0,0,1,65.09,58a1.76,1.76,0,0,0,1.84,1.39c1.08,0,2.17,0,3.25,0,1.75-.08,2.2-.85,1.54-2.52-1-2.44-2.16-4.81-3-7.32-.14-.44-.37-.88,0-1.34C70.4,48.63,71.46,50,72.8,51,75.56,53,78.09,55.31,80.93,57.23Z"/><path class="cls-15" d="M68.72,48.15c.71.64.76,1.59,1.1,2.4q1.43,3.3,2.8,6.62c.64,1.53-.08,2.79-1.71,2.86s-3.48,0-5.22,0c-1.14,0-.94-.85-1.09-1.45a5.7,5.7,0,0,0-4.31-4.4A5.5,5.5,0,0,0,54.55,56a5.07,5.07,0,0,0-1.37,3c-.06.83-.45,1-1.17,1-4.28,0-8.56,0-12.84,0-.85,0-1.1-.34-1.24-1.13a5.79,5.79,0,0,0-11.4-.2c-.22,1.2-.75,1.38-1.78,1.34-1.36-.06-2.72,0-4.09,0-1.87-.45-2.36-1.28-1.76-3,.9-2.62,2-5.16,2.82-7.83a1.87,1.87,0,0,1,1.91-1.39l2.69,0c2.11,0,2.15,0,2.22-2.17a20.38,20.38,0,0,1,.9-5.13c1.31-4.29,4.14-6.48,8.62-6.53a60.37,60.37,0,0,1,8.18.2,12.29,12.29,0,0,1,6.1,2.38,18.44,18.44,0,0,1,6.06,8.79c.62,1.79.69,1.81,2.63,1.84,1.54,0,3.11-.21,4.56.56C66.62,48,67.72,47.63,68.72,48.15Z"/><path class="cls-3" d="M65.59,47.77l-6.32.06A1,1,0,0,1,58.2,47a26.4,26.4,0,0,0-5.86-10.43c1.7.85,2.91,2.31,4.35,3.48,2.79,2.27,5.5,4.64,8.23,7A7.61,7.61,0,0,1,65.59,47.77Z"/><path class="cls-16" d="M32.17,65.71a4.94,4.94,0,0,1-5-5,5,5,0,0,1,10.06.09A4.92,4.92,0,0,1,32.17,65.71Z"/><path class="cls-16" d="M58.71,65.71a5,5,0,1,1,5.17-5A5,5,0,0,1,58.71,65.71Z"/><path class="cls-3" d="M49.65,49c-1.88,0-3.76,0-5.64,0-.89,0-1.27-.24-1.26-1.19q.06-5.3,0-10.58c0-.84.29-1.08,1.13-1.19,4.29-.57,7.43,1,9.43,4.86,1.11,2.11,2.46,4.1,3,6.5.26,1.18.1,1.71-1.29,1.62C53.23,48.87,51.44,49,49.65,49Z"/><path class="cls-3" d="M40.79,42.55c0,1.69,0,3.39,0,5.08,0,.92-.21,1.37-1.24,1.35-2.63-.06-5.27,0-7.9,0-.66,0-1.1-.14-1-.93.21-2.66,0-5.36.8-8,1-3.06,2.26-4,5.42-4,.94,0,1.88,0,2.82,0s1.16.33,1.14,1.17C40.76,39,40.79,40.77,40.79,42.55Z"/><circle class="cls-17" cx="32.22" cy="60.73" r="3.3"/><circle class="cls-17" cx="58.84" cy="60.73" r="3.3"/><polygon class="cls-17" points="39.98 33.96 40.8 30.5 44.44 30.5 45.49 34.11 39.98 33.96"/><rect x="38.59" y="54.75" width="2.69" height="2.69"/></g></g><rect x="41.27" y="52.06" width="2.69" height="2.69"/><rect x="43.96" y="54.75" width="2.69" height="2.69"/><rect x="46.54" y="52.06" width="2.69" height="2.69"/><rect x="49.23" y="54.75" width="2.69" height="2.69"/><rect x="35.91" y="52.06" width="2.69" height="2.69"/></g></svg>