<svg id="Layer_1" data-name="Layer 1" xmlns="http://www.w3.org/2000/svg" viewBox="0 0 100 100"><defs><style>.cls-1{fill:#fe0015;}.cls-2{fill:#fe9e00;}.cls-3{fill:#ff5f00;}</style></defs><circle cx="50" cy="50" r="47.5"/><path class="cls-1" d="M36.48,73.51H34.59a2.67,2.67,0,0,0-.69,0,18.88,18.88,0,0,1-4.78-.78A23.31,23.31,0,0,1,24.85,71,24.4,24.4,0,0,1,20,67.75a23.48,23.48,0,0,1-7.76-14A16.78,16.78,0,0,1,12,51.07c0-.52,0-1,0-1.55a.2.2,0,0,1,0-.07c0-.19,0-.38,0-.57a19.94,19.94,0,0,1,.79-5.26,23.1,23.1,0,0,1,1.87-4.68,23.61,23.61,0,0,1,2.77-4.1,22.11,22.11,0,0,1,1.61-1.74,23.8,23.8,0,0,1,9.13-5.52,21.93,21.93,0,0,1,4.46-1A18.55,18.55,0,0,1,35,26.52h1a18.55,18.55,0,0,1,2.36.08,19.34,19.34,0,0,1,3.21.61A23.3,23.3,0,0,1,46.13,29a24.49,24.49,0,0,1,3.7,2.33.46.46,0,0,1,.18.21.25.25,0,0,1-.13.27,23.48,23.48,0,0,0-1.81,1.64,22.37,22.37,0,0,0-1.78,2,22.84,22.84,0,0,0-3.24,5.41,23.36,23.36,0,0,0-1.65,5.92,24,24,0,0,0-.2,4.4,22.48,22.48,0,0,0,.94,5.58,24.4,24.4,0,0,0,1.18,3.12,23.5,23.5,0,0,0,2.75,4.53,24,24,0,0,0,2.69,2.92c.35.33.73.63,1.1.94.09.08.18.16.15.3s-.18.22-.3.3a24.49,24.49,0,0,1-3.84,2.37A23.78,23.78,0,0,1,39,73.32a17.63,17.63,0,0,1-2.29.16C36.65,73.49,36.56,73.46,36.48,73.51Z"/><path class="cls-2" d="M65.54,73.51H63.65a3.23,3.23,0,0,0-.76,0,18.83,18.83,0,0,1-4.66-.76,22.61,22.61,0,0,1-4.69-1.87,23.67,23.67,0,0,1-3.35-2.17.3.3,0,0,1-.15-.2c0-.12.1-.18.18-.24a23.36,23.36,0,0,0,4.4-4.67,22.6,22.6,0,0,0,2.58-4.7,23.24,23.24,0,0,0,1.44-5.19,24,24,0,0,0,.25-4.94A22.56,22.56,0,0,0,58,43.32a23.5,23.5,0,0,0-2.57-5.69A24.69,24.69,0,0,0,53,34.38a23.13,23.13,0,0,0-2.73-2.6.39.39,0,0,1-.19-.24c0-.11.1-.17.18-.23a23,23,0,0,1,9.51-4.38,17.4,17.4,0,0,1,3.22-.4c1,0,2,0,3,0a19.9,19.9,0,0,1,5.41.9A22.56,22.56,0,0,1,75,28.87a23.72,23.72,0,0,1,4.87,3.24,26,26,0,0,1,2.07,2,21.32,21.32,0,0,1,1.84,2.28,23.31,23.31,0,0,1,4.06,10,14.19,14.19,0,0,1,.13,2c0,.08,0,.17,0,.25v2.82a5.79,5.79,0,0,0,0,.93,14.81,14.81,0,0,1-.42,2.9,23.2,23.2,0,0,1-2.19,5.87,22.87,22.87,0,0,1-3,4.36,23.46,23.46,0,0,1-6.11,5A22.92,22.92,0,0,1,69,73.15a16,16,0,0,1-2.85.32A2.67,2.67,0,0,0,65.54,73.51Z"/><path class="cls-3" d="M50.07,68.46H50a.49.49,0,0,0-.12-.13,21.79,21.79,0,0,1-2.25-2c-.41-.43-.8-.88-1.18-1.33a23.54,23.54,0,0,1-1.73-2.37c-.31-.48-.58-1-.85-1.48s-.63-1.23-.9-1.86a23.41,23.41,0,0,1-.84-2.3,21.76,21.76,0,0,1-.6-2.41c-.13-.65-.22-1.31-.3-2a24.87,24.87,0,0,1-.11-3.76,17,17,0,0,1,.15-1.75,23.84,23.84,0,0,1,1.58-6,24.07,24.07,0,0,1,1.1-2.29,21.5,21.5,0,0,1,1.18-2c.44-.64.91-1.26,1.4-1.85s1-1.11,1.48-1.63a21.09,21.09,0,0,1,1.86-1.67.44.44,0,0,0,.13-.14h.08c.52.41,1,.85,1.51,1.31.28.27.57.52.83.81.52.56,1,1.13,1.51,1.74.3.4.62.79.9,1.21s.7,1.06,1,1.61a18.14,18.14,0,0,1,.89,1.69c.26.55.51,1.11.73,1.68a24.19,24.19,0,0,1,1,3.21c.15.61.25,1.23.34,1.85s.12.94.17,1.41A17,17,0,0,1,59,49.81c0,.4,0,.81,0,1.21s-.06,1-.12,1.5-.09.78-.14,1.17a22.76,22.76,0,0,1-.53,2.48c-.14.54-.31,1.07-.49,1.6a21.92,21.92,0,0,1-.94,2.31,22.31,22.31,0,0,1-2.69,4.35c-.4.51-.82,1-1.26,1.48s-.88.93-1.34,1.36A14.54,14.54,0,0,1,50.07,68.46Z"/></svg>