<svg id="Layer_1" data-name="Layer 1" xmlns="http://www.w3.org/2000/svg" viewBox="0 0 100 100"><defs><style>.cls-1{fill:#fff;}.cls-2{fill:none;stroke:#244157;stroke-miterlimit:10;stroke-width:4px;}.cls-3{fill:#244157;}</style></defs><circle class="cls-1" cx="50" cy="50" r="47.38"/><circle class="cls-2" cx="50" cy="50" r="41.57"/><g id="OMpC0n"><path class="cls-3" d="M61.51,55.21a14.49,14.49,0,0,1-7.89-2.11,1.2,1.2,0,0,0-1.75.25C46.13,59.14,40.35,64.9,34.6,70.67a4.43,4.43,0,0,1-2.44,1.47A3.52,3.52,0,0,1,29,66.29c1.2-1.41,1.2-1.41,0-2.64-1.89-1.86-1.89-1.86,0-3.74,1.32-1.31,2.66-2.59,3.95-3.93.54-.56.94-.6,1.47,0s1.23,1.18,1.78,1.82.86.48,1.36,0c3.15-3.19,6.31-6.37,9.51-9.5.61-.6.47-1,.11-1.66a13.82,13.82,0,0,1-1.46-11.53,10.56,10.56,0,0,1,11-7.25A16.91,16.91,0,0,1,72.21,41.47C73.72,48.94,68.71,55.2,61.51,55.21Zm-.35-7.09c2.6,0,4.11-1.33,4.23-3.79.24-4.68-4.77-9.7-9.46-9.47a3.7,3.7,0,0,0-3.78,3.37C51.41,42.8,56.22,48.08,61.16,48.12Z"/></g></svg>