<svg id="Layer_1" data-name="Layer 1" xmlns="http://www.w3.org/2000/svg" xmlns:xlink="http://www.w3.org/1999/xlink" viewBox="0 0 360 100"><defs><style>.cls-1{fill:none;}.cls-2{fill:#2f556d;}.cls-3{fill:#13232d;}.cls-4{fill:#db1b2a;}.cls-5{fill:#fff;}.cls-6{opacity:0.8;}.cls-7{clip-path:url(#clip-path);}.cls-8{fill:#fefefe;}.cls-9{fill:#ecc111;}.cls-10{fill:#333;}.cls-11{fill:#f7fdf9;}.cls-12{fill:#4cd38e;}.cls-13{fill:#fedc12;}.cls-14{fill:#40c5c2;}.cls-15{fill:#f2f9f8;}.cls-16{fill:#f7fbfa;}.cls-17{fill:#f6faf9;}.cls-18{fill:#e6f4f0;}</style><clipPath id="clip-path"><circle class="cls-1" cx="314.53" cy="50" r="35.67"/></clipPath></defs><path class="cls-2" d="M227.38,50A47.38,47.38,0,0,1,180,97.38c-.9,0-1.8,0-2.69-.08a48.38,48.38,0,0,1-6.07-.73A47.38,47.38,0,1,1,227.38,50Z"/><path class="cls-3" d="M222.17,71.6A47.38,47.38,0,0,1,180,97.38c-.9,0-1.8,0-2.69-.08L161.79,70.46l-3.61-6.24-.91-1.58c3.89-1.68,7.61.55,7.93,4.77a1.78,1.78,0,0,0,2,1.86c6.25,0,12.5.11,18.75,0,3.78-.1,6.82-1.69,8.45-5.38.52-1.19,1.17-2.34,1.9-3.78.22,1,.16,1.88.59,2.31s1.29-.33,2-.32a5.28,5.28,0,0,1,.56,0c.87.13.92-.36.78-1-.21-1-.42-2.06-.62-3.1-.91-4.76-2.78-14.57-3.68-19.34Z"/><path class="cls-4" d="M199.41,62.05a5.28,5.28,0,0,0-.56,0c-.71,0-1.46.87-2,.32s-.37-1.33-.59-2.31c-.73,1.44-1.38,2.59-1.9,3.78-1.63,3.69-4.67,5.28-8.45,5.38-6.25.15-12.5,0-18.75,0a1.78,1.78,0,0,1-2-1.86c-.32-4.22-4-6.45-7.93-4.77-1.24.54-2.21.28-2.68-.74s-.05-1.92,1.18-2.54a9,9,0,0,1,12.56,5.27,1.25,1.25,0,0,0,1.47,1.05q7.57-.06,15.14,0c3,0,5.22-1,6.45-3.9,1-2.28,2.21-4.45,3.35-6.65a2.62,2.62,0,0,0,.3-1.82c-.52-2.67-1-5.35-1.55-8Q192.23,38.66,191,32c-.11-.56-.32-.77-.88-.75-1,0-2,0-3,0a1.81,1.81,0,1,1,0-3.6c1.69,0,3.39,0,5.08,0a1.79,1.79,0,0,1,2,1.71q1.37,7.13,2.72,14.26T199.57,58c.2,1,.41,2.07.62,3.1C200.33,61.69,200.28,62.18,199.41,62.05Z"/><path class="cls-5" d="M159,63.54a4.6,4.6,0,1,1-4.55,4.58A4.61,4.61,0,0,1,159,63.54Z"/><path class="cls-5" d="M204.85,68.16a4.6,4.6,0,1,1-4.5-4.62A4.61,4.61,0,0,1,204.85,68.16Z"/><g class="cls-6"><g id="K2zuVB.tif"><g class="cls-7"><path class="cls-2" d="M310.88,13.67h7.35a7,7,0,0,0,2.49.22c6.86.39,12.48,3.56,17.62,7.79a36.29,36.29,0,0,1,11,15.79,27.11,27.11,0,0,1,1.24,7.47c0,.41-.14.85.14,1.23V53.8c-.35,1.14,0,2.39-.53,3.5-.67.45-1.23.17-1.78-.26-2.92-2.33-5.89-4.6-8.78-7-.72-.58-1.25-1.36-2.3-1.33-.86-.36-1.82-.11-2.7-.38-3.17-2.49-6.28-5.06-9.26-7.78a17.43,17.43,0,0,0-4.52-3.49,12.73,12.73,0,0,0-7.4-2.39c-2.11-.12-4.23,0-6.35,0a7.71,7.71,0,0,0-8,5.89,18,18,0,0,0-.92,5.26c0,2.14-.57,2.63-2.7,2.68-3.7.1-3.72.1-5,3.56-.61,1.63-1.25,3.25-1.81,4.9-.46,1.35-.25,1.78,1,2.48,2.34,2,4.85,3.84,7.24,5.79,6,4.89,12,9.66,18,14.49,1.69,1.35,3.38,2.69,5.06,4.05.59.48,1.22.95.83,1.87-.86.69-1.92.43-2.84.45a71.84,71.84,0,0,1-11-.3,29.55,29.55,0,0,1-11.29-4.21,37,37,0,0,1-14-14.75,28.93,28.93,0,0,1-3.51-13.93c0-3.1,0-6.19.22-9.3a29.13,29.13,0,0,1,4.83-13.38,36.73,36.73,0,0,1,18.61-15.1,27.27,27.27,0,0,1,7.74-1.33C310.06,13.78,310.5,14,310.88,13.67Z"/><path class="cls-8" d="M349.93,57.23c.54-1.08.22-2.36.8-3.43,0,10.46,0,20.92,0,31.37,0,1-.19,1.16-1.15,1.16q-35.76-.06-71.5,0,0-35.74,0-71.49c0-1,.19-1.17,1.16-1.16,10.55,0,21.1,0,31.65,0-1.73.36-3.47.64-5.18,1.08a36.22,36.22,0,0,0,3.44,70.91,31.22,31.22,0,0,0,11.64-.22,1.89,1.89,0,0,1,1.52-.9,35.35,35.35,0,0,0,26.42-24.87C349,58.8,349,57.76,349.93,57.23Z"/><path class="cls-8" d="M350.73,46.17c-.33-1.63-.59-3.29-1-4.9a36,36,0,0,0-31-27.37,1.47,1.47,0,0,1-.47-.23c10.5,0,21,0,31.51,0,.84,0,1,.17,1,1C350.71,25.17,350.73,35.67,350.73,46.17Z"/><path class="cls-3" d="M349.93,57.23a32.86,32.86,0,0,1-6.93,15,35.85,35.85,0,0,1-21.1,13.07,10.59,10.59,0,0,1-1.12.1,71.54,71.54,0,0,0-6.71-5.57q-11.67-9.42-23.41-18.76a13.48,13.48,0,0,1-1-1c.2-.72.82-.67,1.37-.72a6,6,0,0,1,1.27,0c1.53.18,2.32-.45,2.95-1.92a6.15,6.15,0,0,1,5.94-4,5.84,5.84,0,0,1,5.93,3.93c.65,1.74,1.65,2.07,3.28,2,3.1-.1,6.21-.05,9.31,0a1.9,1.9,0,0,0,2.07-1.48,6.16,6.16,0,0,1,6.16-4.45A6.45,6.45,0,0,1,334.09,58a1.76,1.76,0,0,0,1.84,1.39c1.08,0,2.17,0,3.25,0,1.75-.08,2.2-.85,1.54-2.52-1-2.44-2.16-4.81-3-7.32-.14-.44-.37-.88,0-1.34,1.68.48,2.74,1.86,4.08,2.83C344.56,53,347.09,55.31,349.93,57.23Z"/><path class="cls-9" d="M337.72,48.15c.71.64.76,1.59,1.1,2.4q1.43,3.3,2.8,6.62c.64,1.53-.08,2.79-1.71,2.86s-3.48,0-5.22,0c-1.14,0-.94-.85-1.09-1.45a5.7,5.7,0,0,0-4.31-4.4A5.5,5.5,0,0,0,323.55,56a5.07,5.07,0,0,0-1.37,3c-.06.83-.45,1-1.17,1-4.28,0-8.56,0-12.84,0-.85,0-1.1-.34-1.24-1.13a5.79,5.79,0,0,0-11.4-.2c-.22,1.2-.75,1.38-1.78,1.34-1.36-.06-2.72,0-4.09,0-1.87-.45-2.36-1.28-1.76-3,.9-2.62,2-5.16,2.82-7.83a1.87,1.87,0,0,1,1.91-1.39l2.69,0c2.11,0,2.15,0,2.22-2.17a20.38,20.38,0,0,1,.9-5.13c1.31-4.29,4.14-6.48,8.62-6.53a60.37,60.37,0,0,1,8.18.2,12.29,12.29,0,0,1,6.1,2.38,18.44,18.44,0,0,1,6.06,8.79c.62,1.79.69,1.81,2.63,1.84,1.54,0,3.11-.21,4.56.56C335.62,48,336.72,47.63,337.72,48.15Z"/><path class="cls-3" d="M334.59,47.77l-6.32.06A1,1,0,0,1,327.2,47a26.4,26.4,0,0,0-5.86-10.43c1.7.85,2.91,2.31,4.35,3.48,2.79,2.27,5.5,4.64,8.23,7A7.61,7.61,0,0,1,334.59,47.77Z"/><path class="cls-10" d="M301.17,65.71a4.94,4.94,0,0,1-5-5,5,5,0,0,1,10.06.09A4.92,4.92,0,0,1,301.17,65.71Z"/><path class="cls-10" d="M327.71,65.71a5,5,0,1,1,5.17-5A5,5,0,0,1,327.71,65.71Z"/><path class="cls-3" d="M318.65,49c-1.88,0-3.76,0-5.64,0-.89,0-1.27-.24-1.26-1.19q.06-5.3,0-10.58c0-.84.29-1.08,1.13-1.19,4.29-.57,7.43,1,9.43,4.86,1.11,2.11,2.46,4.1,3,6.5.26,1.18.1,1.71-1.29,1.62C322.23,48.87,320.44,49,318.65,49Z"/><path class="cls-3" d="M309.79,42.55c0,1.69,0,3.39,0,5.08,0,.92-.21,1.37-1.24,1.35-2.63-.06-5.27,0-7.9,0-.66,0-1.1-.14-1-.93.21-2.66,0-5.36.8-8,1-3.06,2.26-4,5.42-4,.94,0,1.88,0,2.82,0s1.16.33,1.14,1.17C309.76,39,309.79,40.77,309.79,42.55Z"/><circle class="cls-11" cx="301.22" cy="60.73" r="3.3"/><circle class="cls-11" cx="327.84" cy="60.73" r="3.3"/><polygon class="cls-11" points="308.98 33.96 309.81 30.5 313.44 30.5 314.49 34.11 308.98 33.96"/><rect x="307.59" y="54.75" width="2.69" height="2.69"/></g></g><rect x="310.27" y="52.06" width="2.69" height="2.69"/><rect x="312.96" y="54.75" width="2.69" height="2.69"/><rect x="315.54" y="52.06" width="2.69" height="2.69"/><rect x="318.23" y="54.75" width="2.69" height="2.69"/><rect x="304.91" y="52.06" width="2.69" height="2.69"/></g><g class="cls-6"><path class="cls-2" d="M82.34,48.67a37,37,0,0,1-.42,5.51A34.85,34.85,0,0,1,80,61.44,35.77,35.77,0,0,1,60,81.75a35.37,35.37,0,0,1-13.36,2.59h-1A35.67,35.67,0,1,1,82.34,48.67Z"/><path class="cls-3" d="M79.69,61.1,58.1,40c-.07-.08-.12-.24-.29-.18a.26.26,0,0,0-.09.16c-.17.58-.35.72-1,.73-.34,0-.69,0-1,0-.17,0-.34,0-.46.15s0,.09,0,.14c0,1,0,1.92,0,2.88,0,.12,0,.26.17.3l0-.08v0c-.15.18,0,.34.07.49.61,1.11,1.22,2.23,1.84,3.34.25.41.44.84.69,1.24a.33.33,0,0,0,.06.1c.07.12.14.26.2.39a.31.31,0,0,0,.05.1c.12.15.17.37.41.42l.15,0a8.73,8.73,0,0,1,4.21-.38,8.25,8.25,0,0,1,5.27,2.92,8.28,8.28,0,0,1-1.32,12,8.25,8.25,0,0,1-6.23,1.71A8.38,8.38,0,0,1,54.2,62a9.86,9.86,0,0,1-1-3.3c0-.35-.28-.4-.59-.4-1.75,0-3.5,0-5.25,0a.41.41,0,0,1-.11-.07,3.07,3.07,0,0,1-1.19-1.1c-1.16-1.32-2.26-2.7-3.43-4-.38-.44-.74-.91-1.14-1.34l-.07-.08c-.2-.25-.42-.48-.61-.73-.56-.67-1.12-1.33-1.69-2-.85-1-1.69-2-2.55-3a.21.21,0,0,0-.28,0c-.5,1.35-.9,2.73-1.37,4.08a.42.42,0,0,0,0,.27,1.35,1.35,0,0,0,.38.19A8.31,8.31,0,0,1,40,59.46a8.5,8.5,0,0,1-8.93,7A8.64,8.64,0,0,1,26.7,65c-.12-.08-.23-.23-.42-.14.09.11.18.22.28.32l14,13.67c.87.86,3.06,3.22,5.15,5.47h1A35.37,35.37,0,0,0,60,81.75,35.77,35.77,0,0,0,80,61.44ZM55.43,41.32h0s0,0,0,0h0Z"/><path class="cls-8" d="M55.41,44.25l1.82,3.33c.07.13.13.27.2.41a3.34,3.34,0,0,0,.7,1.28h0c0,.1,0,.15-.09.19s0,0,0,0,.2.18.32.26h0a.77.77,0,0,0,.49.76,8.87,8.87,0,0,1,.81,1.36c.75,1.38,1.55,2.74,2.24,4.16,0,.1,0,.22.13.28a.5.5,0,0,1,.09.23c0,.2.15.28.26.4.18.29.36.58.15.92,0,.09-.18.06-.19.18a.13.13,0,0,1-.06.07c-.18,0-.06.15-.15.18a.47.47,0,0,1-.3.1c-2.44,0-4.87,0-7.31,0-2.27,0-4.54,0-6.8,0a1,1,0,0,1-.54-.06.61.61,0,0,1-.5-.24l-4.14-4.89a1.63,1.63,0,0,0-.52-.82c-.07-.06-.18-.12-.17-.19.06-.41-.24-.33-.47-.35h0a1.18,1.18,0,0,0-.34-.51c-.07-.06-.13-.12-.08-.22S41,51,41.07,51s0,0-.06,0a.26.26,0,0,1-.24,0L37.14,46.8l-.58-.71c-.06-.06-.07-.22-.2-.08-.44,1.34-.87,2.68-1.3,4l-.09.3a.73.73,0,0,1-.08.54c-.13.42-.28.84-.42,1.25-.64,2-1.33,4.06-2,6.09a.91.91,0,0,1-.7.74.87.87,0,0,1-1-1.14c.11-.46.28-.9.42-1.34.54-1.61,1.05-3.22,1.59-4.82.16-.43.28-.87.42-1.3a.93.93,0,0,1,.27-.53c.63-1.89,1.25-3.77,1.87-5.66q2.05-6.24,4.09-12.47a1.09,1.09,0,0,1,.76-.83.29.29,0,0,1,.22-.05H45.2c.08,0,.16,0,.22.05a1,1,0,0,1,.71.53.73.73,0,0,1-.33,1,1.33,1.33,0,0,1-.71.14H41.55c-.63,0-.64,0-.83.58L37.48,43c-.13.4-.1.43.38.43H53.19a1.62,1.62,0,0,0,.31,0,.16.16,0,0,0,.11,0,15.44,15.44,0,0,0,0-2c0-.19,0-.39.11-.55a2.45,2.45,0,0,1,1.56,0c0,1,0,2,0,3,0,.14-.05.28,0,.41s0,0,0,0S55.42,44.25,55.41,44.25Z"/><path class="cls-2" d="M53.62,43.56h-16c-.44,0-.44,0-.31-.41Q39,38,40.69,32.84a.47.47,0,0,1,.55-.41c1.31,0,2.62,0,3.93,0,.75,0,1-.31,1-1,.18,0,.22.17.32.26l7,6.85a2.33,2.33,0,0,1,.56.57c-.15.15-.34.11-.51.11-.89,0-1.78,0-2.67,0-.13,0-.26,0-.4,0,.07,0,.15,0,.16.08s-.16.15-.26.21a.61.61,0,0,0-.31.68.68.68,0,0,0,.59.53,2.82,2.82,0,0,0,.58,0h2c.18,0,.37,0,.5.15,0,.82,0,1.65,0,2.48A.33.33,0,0,1,53.62,43.56Z"/><path class="cls-12" d="M34.39,52.11,35,50.33a8.18,8.18,0,0,1,4.14,3.59,8.47,8.47,0,0,1-6.49,12.62A8.65,8.65,0,0,1,26.45,65l-.17-.08A8.91,8.91,0,0,1,23.4,61,8.47,8.47,0,0,1,30,49.76a8.84,8.84,0,0,1,3.4.06l-.6,1.82a8.69,8.69,0,0,1-1.35,0,6.28,6.28,0,0,0-4.71,2A6,6,0,0,0,25,57.42a2,2,0,0,1,0,.24,1.89,1.89,0,0,0,0,.82,1.54,1.54,0,0,1,0,.3A6.16,6.16,0,0,0,27.14,63a6.32,6.32,0,0,0,4.51,1.66,6.55,6.55,0,0,0,5.57-3.09,6.45,6.45,0,0,0-.47-7.47,6.94,6.94,0,0,0-2-1.64A.59.59,0,0,1,34.39,52.11Z"/><path class="cls-13" d="M53.61,40.83H50.86c-.59,0-.92-.23-1-.66s.16-.74.72-.92a.34.34,0,0,1,.21-.08c1.12,0,2.23,0,3.34,0h2.57c.13,0,.26,0,.38.05a1,1,0,0,1,.71.58c0,.7-.26,1-1,1H53.76l-.07,0Z"/><path class="cls-14" d="M45.42,30.86H40.16c-.09,0-.17-.08,0-.08h5.25s.07,0,.07,0S45.45,30.84,45.42,30.86Z"/><path class="cls-12" d="M59.62,51.88l-.8-1.38c-.12-.08-.21-.16-.13-.31a8.71,8.71,0,0,1,11.55,6A8.51,8.51,0,0,1,63.12,66.5a8.63,8.63,0,0,1-10-7.56.77.77,0,0,0,0-.15.61.61,0,0,1,0-.4,13.39,13.39,0,0,1,1.79-.06l.13,0a.2.2,0,0,1,.09.09,6.83,6.83,0,0,0,.38,1.89,6.47,6.47,0,0,0,5.3,4.24,6.62,6.62,0,0,0,7.14-4,6.44,6.44,0,0,0-2.41-7.72A6.85,6.85,0,0,0,60,51.85C59.89,51.88,59.76,52,59.62,51.88Z"/><path class="cls-15" d="M55.08,58.33H55c-.63.09-1.26,0-1.88.05H47.66c-.14,0-.29.05-.42,0l0-.06H62a.1.1,0,0,1-.05.13,1.2,1.2,0,0,1-.5,0H55.63A.76.76,0,0,1,55.08,58.33Z"/><path class="cls-16" d="M41.4,51.78c.38-.21.62-.27.55.33,0,.14.4.32.5.57s.24.27.11.46A17,17,0,0,1,41.4,51.78Z"/><path class="cls-17" d="M58.13,49.27c-.19,0-.33-.08-.37-.33a1.88,1.88,0,0,0-.3-.6c-.07-.12-.13-.23,0-.35A9.37,9.37,0,0,1,58.13,49.27Z"/><path class="cls-17" d="M58.69,50.19l.13.31c-.35,0-.62-.51-.44-.78Z"/><path class="cls-16" d="M41,51c.12.15.23.32.37.47s0,.18,0,.27a4.41,4.41,0,0,1-.63-.74A.19.19,0,0,1,41,51Z"/><path class="cls-17" d="M58.38,49.73,58,49.5h0l.15-.23A1.22,1.22,0,0,1,58.38,49.73Z"/><path class="cls-18" d="M36.36,46c-.09,0-.07-.11,0-.12s.19.07.2.2C36.49,46.06,36.45,46,36.36,46Z"/><path class="cls-3" d="M34.39,52.11a6.57,6.57,0,0,1-2.15,12.56,6.7,6.7,0,0,1-7.34-5.58,1.51,1.51,0,0,1,0-.3.92.92,0,0,0,0-.43.13.13,0,0,1,0,.15,1.75,1.75,0,0,1,0-.88.23.23,0,0,1,.05.22,1.36,1.36,0,0,0,0-.43A6.12,6.12,0,0,1,27,53.25a6.72,6.72,0,0,1,5.81-1.61c-.62,1.91-1.24,3.81-1.85,5.72,0,.14-.1.29-.14.43a.79.79,0,0,0,.47,1.06.81.81,0,0,0,1-.6l1.17-3.58C33.81,53.82,34.1,53,34.39,52.11Z"/><path class="cls-3" d="M61.92,58.32l0-.06c.1,0,.15-.06.23-.09a.24.24,0,0,1,.17-.12h0a.2.2,0,0,1,.13-.16c.23-.38,0-.67-.16-1a.62.62,0,0,1-.22-.37c-.09-.06-.05-.16-.1-.23s-.06-.17-.13-.23l-2-3.68c-.09-.16-.17-.33-.25-.5a6.57,6.57,0,1,1-4.54,6.72c0-.06,0-.12,0-.19a.85.85,0,0,1,.42,0h6.05C61.68,58.37,61.82,58.43,61.92,58.32Z"/><path class="cls-3" d="M53.06,45.39l-3,5.39c-.92,1.69-1.86,3.37-2.78,5-.1.18-.13.37-.37.09L38,45.33l-.07-.09a.79.79,0,0,1,.43,0c4.75,0,9.5,0,14.25,0A.44.44,0,0,1,53.06,45.39Z"/><path class="cls-3" d="M53.24,56.73h-4.6L54.55,46l2.71,4.93c-.25.35-.67.5-1,.77a8.37,8.37,0,0,0-2.84,4.59A.76.76,0,0,1,53.24,56.73Z"/><path class="cls-3" d="M58.15,52.56l2.32,4.17H55.2a.36.36,0,0,1,0-.36,6.67,6.67,0,0,1,2.64-3.7A.45.45,0,0,1,58.15,52.56Z"/><path class="cls-12" d="M58.15,52.56a6.71,6.71,0,0,0-2.95,4.17h-2a8.38,8.38,0,0,1,3.68-5.63,3.65,3.65,0,0,1,.34-.18Z"/><path class="cls-11" d="M52.84,45.1c-.12,0-.23,0-.35,0H38.55a.81.81,0,0,1-.38,0h7.08c2.36,0,4.73,0,7.09,0,.21,0,.45,0,.51-.28C53,45,52.85,45,52.84,45.1Z"/><path class="cls-11" d="M52.5,45H37.94v-.08H52.51Z"/><path class="cls-15" d="M55.82,58.12h5.4v0H55.81Z"/><path class="cls-15" d="M47.72,58.13h4.8v0H47.71Z"/><path class="cls-11" d="M53.08,45.4c.15-.23,0-.28-.19-.3l.27-.29c.13.13,0,.3.06.46a1.11,1.11,0,0,1,0,.26C53.11,45.55,53.16,45.41,53.08,45.4Z"/><path class="cls-15" d="M62.1,56.52a.62.62,0,0,1,.22.37C62.13,56.83,62,56.76,62.1,56.52Z"/><path class="cls-15" d="M62.48,57.88a.2.2,0,0,1-.13.16c0-.08-.14-.15-.05-.25A1,1,0,0,1,62.48,57.88Z"/><path class="cls-15" d="M61.87,56.06l.13.23C61.68,56.37,61.9,56.14,61.87,56.06Z"/><path class="cls-15" d="M62.35,58.05a.16.16,0,0,1-.17.12L62.06,58C62.15,58,62.25,58.07,62.35,58.05Z"/><path class="cls-16" d="M41.3,50.9,41,51c0-.08,0-.14.13-.15Z"/><path class="cls-17" d="M58,49.5c0,.06,0,.13-.11.12a.13.13,0,0,1,0-.09c0-.1.09,0,.15,0Z"/><path class="cls-3" d="M24.89,57.42c.13.17.06.36,0,.54l0-.33Z"/><path class="cls-3" d="M24.87,58.51l0-.25c0,.18.11.36,0,.53Z"/><path class="cls-12" d="M53.15,58.41l0-.08a13.39,13.39,0,0,1,1.9,0c-.29.17-.6.06-.9.08S53.47,58.41,53.15,58.41Z"/></g></svg>