<svg id="Layer_1" data-name="Layer 1" xmlns="http://www.w3.org/2000/svg" viewBox="0 0 100 100"><defs><style>.cls-1{fill:#2f556d;}.cls-2{fill:#13232d;}.cls-3{fill:#db1b2a;}.cls-4{fill:#fff;}</style></defs><path class="cls-1" d="M97.38,50A47.38,47.38,0,0,1,50,97.38c-.9,0-1.8,0-2.69-.08a48.38,48.38,0,0,1-6.07-.73A47.38,47.38,0,1,1,97.38,50Z"/><path class="cls-2" d="M92.17,71.6A47.38,47.38,0,0,1,50,97.38c-.9,0-1.8,0-2.69-.08L31.79,70.46l-3.61-6.24-.91-1.58c3.89-1.68,7.61.55,7.93,4.77a1.78,1.78,0,0,0,2,1.86c6.25,0,12.5.11,18.75,0,3.78-.1,6.82-1.69,8.45-5.38.52-1.19,1.17-2.34,1.9-3.78.22,1,.16,1.88.59,2.31s1.29-.33,2-.32a5.28,5.28,0,0,1,.56,0c.87.13.92-.36.78-1C70,60,69.77,59,69.57,58c-.91-4.76-2.78-14.57-3.68-19.34Z"/><path class="cls-3" d="M69.41,62.05a5.28,5.28,0,0,0-.56,0c-.71,0-1.46.87-2,.32s-.37-1.33-.59-2.31c-.73,1.44-1.38,2.59-1.9,3.78-1.63,3.69-4.67,5.28-8.45,5.38-6.25.15-12.5,0-18.75,0a1.78,1.78,0,0,1-2-1.86c-.32-4.22-4-6.45-7.93-4.77-1.24.54-2.21.28-2.68-.74s-.05-1.92,1.18-2.54a9,9,0,0,1,12.56,5.27,1.25,1.25,0,0,0,1.47,1.05q7.58-.06,15.14,0c3,0,5.22-1,6.45-3.9,1-2.28,2.21-4.45,3.35-6.65a2.62,2.62,0,0,0,.3-1.82c-.52-2.67-1-5.35-1.55-8Q62.23,38.66,61,32c-.11-.56-.32-.77-.88-.75-1,0-2,0-3.05,0a1.81,1.81,0,1,1,0-3.6c1.69,0,3.39,0,5.08,0a1.79,1.79,0,0,1,2,1.71q1.37,7.13,2.72,14.26T69.57,58c.2,1,.41,2.07.62,3.1C70.33,61.69,70.28,62.18,69.41,62.05Z"/><path class="cls-4" d="M29,63.54a4.6,4.6,0,1,1-4.55,4.58A4.61,4.61,0,0,1,29,63.54Z"/><path class="cls-4" d="M74.85,68.16a4.6,4.6,0,1,1-4.5-4.62A4.61,4.61,0,0,1,74.85,68.16Z"/></svg>