<svg id="Layer_1" data-name="Layer 1" xmlns="http://www.w3.org/2000/svg" xmlns:xlink="http://www.w3.org/1999/xlink" viewBox="0 0 100 100"><defs><style>.cls-1{fill:none;}.cls-2{clip-path:url(#clip-path);}.cls-3{fill:#2f556d;}.cls-4{fill:#fefefe;}.cls-5{fill:#13232d;}.cls-6{fill:#ecc111;}.cls-7{fill:#333;}.cls-8{fill:#f7fdf9;}</style><clipPath id="clip-path"><circle class="cls-1" cx="50" cy="50" r="47.37"/></clipPath></defs><g id="K2zuVB.tif"><g class="cls-2"><path class="cls-3" d="M45.15,1.75h9.76A9,9,0,0,0,58.22,2c9.11.52,16.57,4.73,23.4,10.35a48.24,48.24,0,0,1,14.62,21c1.2,3.22,1.38,6.57,1.65,9.93,0,.55-.18,1.13.18,1.64V55.05c-.45,1.52.06,3.17-.69,4.65-.89.6-1.65.22-2.37-.36-3.88-3.08-7.82-6.09-11.67-9.23-1-.77-1.65-1.81-3-1.76-1.15-.49-2.42-.16-3.59-.51-4.21-3.31-8.34-6.73-12.3-10.33-1.89-1.72-3.62-3.6-6-4.65-2.88-2.27-6.3-3-9.82-3.16-2.81-.17-5.63-.05-8.44,0-5.38,0-9,2.69-10.57,7.83a23.59,23.59,0,0,0-1.22,7c0,2.84-.75,3.49-3.59,3.57-4.92.13-4.94.12-6.69,4.73-.82,2.16-1.66,4.31-2.41,6.49-.61,1.8-.33,2.38,1.35,3.31,3.12,2.68,6.44,5.09,9.62,7.69,7.93,6.48,16,12.83,24,19.23,2.24,1.8,4.49,3.58,6.72,5.39.79.63,1.63,1.26,1.11,2.49-1.14.91-2.55.56-3.78.6A94.79,94.79,0,0,1,40,97.55a39,39,0,0,1-15-5.57A49.24,49.24,0,0,1,6.47,72.38a38.55,38.55,0,0,1-4.66-18.5c0-4.12,0-8.23.29-12.35.5-6.55,3-12.32,6.43-17.77a48.69,48.69,0,0,1,24.71-20C36.57,2.44,40,2.21,43.51,1.94,44.06,1.9,44.64,2.11,45.15,1.75Z"/><path class="cls-4" d="M97,59.6c.72-1.43.3-3.13,1.06-4.55,0,13.89,0,27.78,0,41.66,0,1.29-.26,1.54-1.54,1.54q-47.47-.07-95,0,0-47.47,0-94.95c0-1.29.25-1.55,1.53-1.54,14,.06,28,0,42,0-2.3.48-4.61.85-6.88,1.43a48.1,48.1,0,0,0,4.57,94.18,41.45,41.45,0,0,0,15.46-.3,2.51,2.51,0,0,1,2-1.18A46.34,46.34,0,0,0,83.49,83.16,45.87,45.87,0,0,0,95.4,62.84C95.72,61.69,95.73,60.31,97,59.6Z"/><path class="cls-4" d="M98.07,44.92c-.43-2.18-.77-4.37-1.31-6.52C91.8,18.59,75.92,4.61,55.53,2.05a2,2,0,0,1-.62-.3c14,0,27.9,0,41.85,0,1.12,0,1.35.23,1.34,1.35C98.05,17,98.07,31,98.07,44.92Z"/><path class="cls-5" d="M97,59.6a43.67,43.67,0,0,1-9.2,20,47.6,47.6,0,0,1-28,17.35,10.43,10.43,0,0,1-1.48.13c-2.7-2.78-5.91-5-8.91-7.38C39.06,81.33,28.66,73.06,18.3,64.75A15.06,15.06,0,0,1,17,63.43c.27-1,1.08-.89,1.82-1a7.27,7.27,0,0,1,1.68,0c2,.23,3.09-.6,3.92-2.55a8.16,8.16,0,0,1,7.88-5.32c3.79,0,6.59,1.76,7.89,5.22.86,2.31,2.19,2.74,4.35,2.67,4.12-.13,8.25-.06,12.37,0a2.53,2.53,0,0,0,2.75-2c1.4-3.92,4.26-5.92,8.18-5.92a8.57,8.57,0,0,1,8.16,6,2.36,2.36,0,0,0,2.45,1.85c1.44,0,2.88,0,4.31,0,2.33-.11,2.93-1.14,2-3.36-1.3-3.24-2.86-6.38-3.94-9.71-.19-.59-.49-1.18,0-1.78,2.23.63,3.65,2.46,5.42,3.75C89.88,54,93.24,57.06,97,59.6Z"/><path class="cls-6" d="M80.79,47.55c.95.84,1,2.1,1.47,3.18q1.88,4.4,3.72,8.8c.84,2-.11,3.7-2.28,3.79s-4.62,0-6.93,0c-1.51.05-1.24-1.12-1.45-1.92A7.54,7.54,0,0,0,69.6,55.6,7.33,7.33,0,0,0,62,58a6.65,6.65,0,0,0-1.82,4c-.08,1.1-.6,1.33-1.56,1.33-5.68,0-11.37,0-17.05,0-1.13,0-1.47-.45-1.65-1.51a7.69,7.69,0,0,0-15.14-.26c-.3,1.6-1,1.83-2.36,1.78-1.81-.08-3.62,0-5.43,0-2.48-.6-3.14-1.71-2.34-4,1.19-3.49,2.7-6.86,3.74-10.4a2.49,2.49,0,0,1,2.55-1.84c1.18,0,2.37,0,3.56,0,2.81,0,2.85,0,3-2.88a26.23,26.23,0,0,1,1.19-6.81c1.73-5.71,5.5-8.62,11.45-8.67A78.75,78.75,0,0,1,50.94,29,16.35,16.35,0,0,1,59,32.18a24.35,24.35,0,0,1,8,11.67c.83,2.38.93,2.41,3.51,2.44,2,0,4.12-.27,6,.74C78,47.28,79.47,46.85,80.79,47.55Z"/><path class="cls-5" d="M76.64,47l-8.4.09c-.79,0-1.16-.27-1.42-1.09A34.93,34.93,0,0,0,59,32.18c2.25,1.13,3.87,3.06,5.78,4.62,3.71,3,7.3,6.17,10.93,9.28A11.48,11.48,0,0,1,76.64,47Z"/><path class="cls-7" d="M32.26,70.86A6.61,6.61,0,1,1,39,64.34,6.55,6.55,0,0,1,32.26,70.86Z"/><path class="cls-7" d="M67.51,70.86a6.61,6.61,0,1,1,6.86-6.61A6.62,6.62,0,0,1,67.51,70.86Z"/><path class="cls-5" d="M55.47,48.62c-2.5,0-5,0-7.5,0-1.17,0-1.67-.32-1.66-1.58,0-4.69,0-9.37,0-14,0-1.11.38-1.44,1.49-1.59,5.71-.75,9.88,1.39,12.54,6.46,1.47,2.8,3.27,5.45,3.95,8.63.34,1.58.13,2.28-1.72,2.16C60.22,48.5,57.84,48.62,55.47,48.62Z"/><path class="cls-5" d="M43.7,40.11c0,2.25-.05,4.49,0,6.74,0,1.22-.28,1.82-1.66,1.79-3.49-.08-7,0-10.48,0-.88,0-1.47-.19-1.39-1.23.28-3.53,0-7.12,1.07-10.58,1.27-4.06,3-5.34,7.2-5.35,1.25,0,2.5.05,3.74,0s1.54.44,1.51,1.54C43.66,35.36,43.7,37.74,43.7,40.11Z"/><circle class="cls-8" cx="32.32" cy="64.25" r="4.38"/><circle class="cls-8" cx="67.67" cy="64.25" r="4.38"/><polygon class="cls-8" points="42.63 28.7 43.72 24.1 48.55 24.1 49.94 28.9 42.63 28.7"/><rect x="40.78" y="56.31" width="3.57" height="3.57"/></g></g><rect x="44.34" y="52.74" width="3.57" height="3.57"/><rect x="47.91" y="56.31" width="3.57" height="3.57"/><rect x="51.34" y="52.74" width="3.57" height="3.57"/><rect x="54.91" y="56.31" width="3.57" height="3.57"/><rect x="37.22" y="52.74" width="3.57" height="3.57"/></svg>