<svg id="Layer_1" data-name="Layer 1" xmlns="http://www.w3.org/2000/svg" xmlns:xlink="http://www.w3.org/1999/xlink" viewBox="0 0 360 100"><defs><style>.cls-1{fill:none;}.cls-2{clip-path:url(#clip-path);}.cls-3{fill:#2f556d;}.cls-4{fill:#fefefe;}.cls-5{fill:#13232d;}.cls-6{fill:#ecc111;}.cls-7{fill:#333;}.cls-8{fill:#f7fdf9;}.cls-9{opacity:0.8;}.cls-10{fill:#db1b2a;}.cls-11{fill:#fff;}.cls-12{fill:#1a1a1a;}.cls-13{fill:#414143;}.cls-14{fill:#b3b3b3;}.cls-15{fill:#221f20;}.cls-16{fill:#231f20;}.cls-17{fill:#fac008;}.cls-18{fill:#d72030;}.cls-19{fill:#f1f1f1;}</style><clipPath id="clip-path"><circle class="cls-1" cx="180" cy="50" r="47.37"/></clipPath></defs><g id="K2zuVB.tif"><g class="cls-2"><path class="cls-3" d="M175.15,1.75h9.76a9,9,0,0,0,3.31.29c9.11.52,16.57,4.73,23.4,10.35a48.24,48.24,0,0,1,14.62,21c1.2,3.22,1.38,6.57,1.65,9.93,0,.55-.18,1.13.18,1.64V55.05c-.45,1.52.06,3.17-.69,4.65-.89.6-1.65.22-2.37-.36-3.88-3.08-7.82-6.09-11.67-9.23-1-.77-1.65-1.81-3-1.76-1.15-.49-2.42-.16-3.59-.51-4.21-3.31-8.34-6.73-12.3-10.33-1.89-1.72-3.62-3.6-6-4.65-2.88-2.27-6.3-3-9.82-3.16-2.81-.17-5.63-.05-8.44,0-5.38,0-9,2.69-10.57,7.83a23.59,23.59,0,0,0-1.22,7c0,2.84-.75,3.49-3.59,3.57-4.92.13-4.94.12-6.69,4.73-.82,2.16-1.66,4.31-2.41,6.49-.61,1.8-.33,2.38,1.35,3.31,3.12,2.68,6.44,5.09,9.62,7.69,7.93,6.48,16,12.83,24,19.23,2.24,1.8,4.49,3.58,6.72,5.39.79.63,1.63,1.26,1.11,2.49-1.14.91-2.55.56-3.78.6A94.79,94.79,0,0,1,170,97.55a39,39,0,0,1-15-5.57,49.24,49.24,0,0,1-18.59-19.6,38.55,38.55,0,0,1-4.66-18.5c0-4.12,0-8.23.29-12.35.5-6.55,3-12.32,6.43-17.77a48.69,48.69,0,0,1,24.71-20c3.33-1.27,6.79-1.5,10.27-1.77C174.06,1.9,174.64,2.11,175.15,1.75Z"/><path class="cls-4" d="M227,59.6c.72-1.43.3-3.13,1.06-4.55,0,13.89,0,27.78,0,41.66,0,1.29-.26,1.54-1.54,1.54q-47.48-.07-95,0,0-47.47,0-94.95c0-1.29.25-1.55,1.53-1.54,14,.06,28,0,42,0-2.3.48-4.61.85-6.88,1.43a48.1,48.1,0,0,0,4.57,94.18,41.45,41.45,0,0,0,15.46-.3,2.51,2.51,0,0,1,2-1.18,46.34,46.34,0,0,0,23.18-12.72A45.87,45.87,0,0,0,225.4,62.84C225.72,61.69,225.73,60.31,227,59.6Z"/><path class="cls-4" d="M228.07,44.92c-.43-2.18-.77-4.37-1.31-6.52-5-19.81-20.84-33.79-41.23-36.35a2,2,0,0,1-.62-.3c14,0,27.9,0,41.85,0,1.12,0,1.35.23,1.34,1.35C228.05,17,228.07,31,228.07,44.92Z"/><path class="cls-5" d="M227,59.6a43.67,43.67,0,0,1-9.2,20,47.6,47.6,0,0,1-28,17.35,10.43,10.43,0,0,1-1.48.13c-2.7-2.78-5.91-5-8.91-7.38-10.33-8.35-20.73-16.62-31.09-24.93A15.06,15.06,0,0,1,147,63.43c.27-1,1.08-.89,1.82-1a7.27,7.27,0,0,1,1.68,0c2,.23,3.09-.6,3.92-2.55a8.16,8.16,0,0,1,7.88-5.32c3.79,0,6.59,1.76,7.89,5.22.86,2.31,2.19,2.74,4.35,2.67,4.12-.13,8.25-.06,12.37,0a2.53,2.53,0,0,0,2.75-2c1.4-3.92,4.26-5.92,8.18-5.92a8.57,8.57,0,0,1,8.16,6,2.36,2.36,0,0,0,2.45,1.85c1.44,0,2.88,0,4.31,0,2.33-.11,2.93-1.14,2.05-3.36-1.3-3.24-2.86-6.38-3.94-9.71-.19-.59-.49-1.18-.05-1.78,2.23.63,3.65,2.46,5.42,3.75C219.88,54,223.24,57.06,227,59.6Z"/><path class="cls-6" d="M210.79,47.55c1,.84,1,2.1,1.47,3.18q1.88,4.4,3.72,8.8c.84,2-.11,3.7-2.28,3.79s-4.62,0-6.93,0c-1.51.05-1.24-1.12-1.45-1.92a7.54,7.54,0,0,0-5.72-5.85A7.33,7.33,0,0,0,192,58a6.65,6.65,0,0,0-1.82,4c-.08,1.1-.6,1.33-1.56,1.33-5.68,0-11.37,0-17,0-1.13,0-1.47-.45-1.65-1.51a7.69,7.69,0,0,0-15.14-.26c-.3,1.6-1,1.83-2.36,1.78-1.81-.08-3.62,0-5.43,0-2.48-.6-3.14-1.71-2.34-4,1.19-3.49,2.7-6.86,3.74-10.4a2.49,2.49,0,0,1,2.55-1.84c1.18,0,2.37,0,3.56,0,2.81,0,2.85,0,3-2.88a26.23,26.23,0,0,1,1.19-6.81c1.73-5.71,5.5-8.62,11.45-8.67a78.75,78.75,0,0,1,10.86.25,16.35,16.35,0,0,1,8.1,3.17,24.35,24.35,0,0,1,8,11.67c.83,2.38.93,2.41,3.51,2.44,2,0,4.12-.27,6,.74C208,47.28,209.47,46.85,210.79,47.55Z"/><path class="cls-5" d="M206.64,47l-8.4.09c-.79,0-1.16-.27-1.42-1.09A34.93,34.93,0,0,0,189,32.18c2.25,1.13,3.87,3.06,5.78,4.62,3.71,3,7.3,6.17,10.93,9.28A11.48,11.48,0,0,1,206.64,47Z"/><path class="cls-7" d="M162.26,70.86A6.61,6.61,0,1,1,169,64.34,6.55,6.55,0,0,1,162.26,70.86Z"/><path class="cls-7" d="M197.51,70.86a6.61,6.61,0,1,1,6.86-6.61A6.62,6.62,0,0,1,197.51,70.86Z"/><path class="cls-5" d="M185.47,48.62c-2.5,0-5,0-7.5,0-1.17,0-1.67-.32-1.66-1.58.05-4.69,0-9.37,0-14,0-1.11.38-1.44,1.49-1.59,5.71-.75,9.88,1.39,12.54,6.46,1.47,2.8,3.27,5.45,4,8.63.34,1.58.13,2.28-1.72,2.16C190.22,48.5,187.84,48.62,185.47,48.62Z"/><path class="cls-5" d="M173.7,40.11c0,2.25,0,4.49,0,6.74,0,1.22-.28,1.82-1.66,1.79-3.49-.08-7,0-10.48,0-.88,0-1.47-.19-1.39-1.23.28-3.53,0-7.12,1.07-10.58,1.27-4.06,3-5.34,7.2-5.35,1.25,0,2.5.05,3.74,0s1.54.44,1.51,1.54C173.66,35.36,173.7,37.74,173.7,40.11Z"/><circle class="cls-8" cx="162.32" cy="64.25" r="4.38"/><circle class="cls-8" cx="197.67" cy="64.25" r="4.38"/><polygon class="cls-8" points="172.63 28.7 173.72 24.1 178.55 24.1 179.94 28.9 172.63 28.7"/><rect x="170.78" y="56.31" width="3.57" height="3.57"/></g></g><rect x="174.34" y="52.74" width="3.57" height="3.57"/><rect x="177.91" y="56.31" width="3.57" height="3.57"/><rect x="181.34" y="52.74" width="3.57" height="3.57"/><rect x="184.91" y="56.31" width="3.57" height="3.57"/><rect x="167.22" y="52.74" width="3.57" height="3.57"/><g class="cls-9"><path class="cls-3" d="M81.43,50A35.65,35.65,0,0,1,45.76,85.67c-.68,0-1.36,0-2-.06a34.57,34.57,0,0,1-4.57-.55A35.67,35.67,0,1,1,81.43,50Z"/><path class="cls-5" d="M77.51,66.27a35.66,35.66,0,0,1-31.75,19.4c-.68,0-1.36,0-2-.06L32.05,65.41l-2.72-4.7-.69-1.19a4.09,4.09,0,0,1,6,3.59,1.35,1.35,0,0,0,1.48,1.4c4.71,0,9.41.08,14.12,0a6.62,6.62,0,0,0,6.36-4.05c.39-.9.88-1.76,1.43-2.85.17.74.12,1.42.44,1.74s1-.25,1.51-.24c.14,0,.29,0,.42,0,.66.1.69-.26.59-.75-.16-.78-.32-1.55-.47-2.33-.68-3.59-2.09-11-2.77-14.56Z"/><path class="cls-10" d="M60.37,59.07c-.13,0-.28,0-.42,0-.54,0-1.1.66-1.51.24s-.27-1-.44-1.74c-.55,1.09-1,2-1.43,2.85a6.62,6.62,0,0,1-6.36,4.05c-4.71.11-9.41,0-14.12,0a1.35,1.35,0,0,1-1.48-1.4,4.09,4.09,0,0,0-6-3.59c-.93.41-1.66.2-2-.56s0-1.44.9-1.91A6.76,6.76,0,0,1,37,61a1,1,0,0,0,1.11.79c3.8,0,7.6,0,11.4,0,2.23,0,3.92-.71,4.86-2.94.72-1.71,1.66-3.34,2.52-5a2,2,0,0,0,.22-1.37c-.39-2-.78-4-1.16-6q-1-5-1.9-10c-.08-.43-.24-.58-.66-.57-.76,0-1.53,0-2.29,0a1.38,1.38,0,0,1-1.48-1.4,1.35,1.35,0,0,1,1.47-1.32c1.28,0,2.56,0,3.83,0a1.36,1.36,0,0,1,1.51,1.29l2,10.73q1,5.39,2.05,10.77c.15.78.31,1.55.47,2.33C61.06,58.81,61,59.17,60.37,59.07Z"/><path class="cls-11" d="M29.91,60.2a3.46,3.46,0,1,1-3.43,3.44A3.47,3.47,0,0,1,29.91,60.2Z"/><path class="cls-11" d="M64.47,63.68a3.47,3.47,0,1,1-3.39-3.48A3.47,3.47,0,0,1,64.47,63.68Z"/></g><g class="cls-9"><path class="cls-3" d="M350,50a35.67,35.67,0,1,1-35.67-35.67A35.83,35.83,0,0,1,350,50Z"/><path class="cls-5" d="M349.54,55.51a35.71,35.71,0,0,1-21.89,27.57l-33-28.5,36.69-7Z"/><path class="cls-12" d="M344.5,52c-.08-.49-.05-1-.13-1.48,0-.23,0-.48-.19-.66l-.28-.09-6.49-1.49a3,3,0,0,1-1.49-.82l-2.84-2.77a4.17,4.17,0,0,0-3-1.23c-4.91-.08-9.82-.14-14.73-.11-4.66,0-9.32.07-14,.42A4.66,4.66,0,0,0,298.23,45c-1,1-2.09,1.89-3.13,2.83a2.07,2.07,0,0,1-1,.5c-1.16.27-2.33.54-3.49.83s-2.28.47-3.39.83c0,0-.11.09-.13.15-.2.59-.4,1.17-.58,1.75a.37.37,0,0,0,.08.39.59.59,0,0,0,.4.12c.9,0,1.8,0,2.7,0a.82.82,0,0,0,.44-.29A2.58,2.58,0,0,1,293.6,52a1.87,1.87,0,0,0,.66.44,4.34,4.34,0,0,0,.72,0h38.29a3.76,3.76,0,0,0,.67,0c.28,0,.44-.23.64-.39a2.6,2.6,0,0,1,3.55.11.82.82,0,0,0,.45.28c1.84.05,3.68,0,5.52,0a.5.5,0,0,0,.32-.09C344.54,52.24,344.52,52.1,344.5,52Zm-40-4c0,.33-.12.45-.45.45l-7.54,0c-.16,0-.36.07-.45-.13s.09-.33.22-.46c.86-.85,1.71-1.7,2.58-2.54a4,4,0,0,1,1-.63,3.13,3.13,0,0,1,1.48-.38c.9-.06,1.8-.08,2.7-.14.33,0,.45.1.45.43C304.49,45.73,304.48,46.87,304.5,48Zm22.06.4H305.21a3.37,3.37,0,0,1-.06-1c0-1,0-1.89,0-2.83,0-.35.13-.46.47-.47q6.33-.2,12.66-.16c2.63,0,5.26.07,7.89.15.4,0,.5.14.49.52,0,1.14,0,2.28,0,3.42C326.65,48.15,326.68,48.3,326.56,48.41Z"/><path class="cls-13" d="M304.5,48c0,.33-.12.45-.45.45l-7.54,0c-.16,0-.36.07-.45-.13s.09-.33.22-.46c.86-.85,1.71-1.7,2.58-2.54a4,4,0,0,1,1-.63,3.13,3.13,0,0,1,1.48-.38c.9-.06,1.8-.08,2.7-.14.33,0,.45.1.45.43C304.49,45.73,304.48,46.87,304.5,48Z"/><path class="cls-13" d="M326.56,48.41H305.21a3.37,3.37,0,0,1-.06-1c0-1,0-1.89,0-2.83,0-.35.13-.46.47-.47q6.33-.2,12.66-.16c2.63,0,5.26.07,7.89.15.4,0,.5.14.49.52,0,1.14,0,2.28,0,3.42C326.65,48.15,326.68,48.3,326.56,48.41Z"/><path class="cls-14" d="M294.12,52.29h39.95a.38.38,0,0,1,0,.43,2.44,2.44,0,0,0-.3,1.71c0,.08,0,.18-.11.15h-39a.31.31,0,0,1-.06-.31,2.64,2.64,0,0,0-.37-1.6C294.13,52.55,294,52.44,294.12,52.29Z"/><path class="cls-15" d="M294.12,52.29c.09.3.35.49.43.81a2.86,2.86,0,0,1,.08,1.48,2.74,2.74,0,0,1-2.05,2,2.67,2.67,0,0,1-3.18-1.75l-.11-.27a1,1,0,0,1-.15-.84,2,2,0,0,1,.67-1.45,2.93,2.93,0,0,1,1.55-1A2.72,2.72,0,0,1,294.12,52.29Z"/><path class="cls-16" d="M333.63,54.58a3.52,3.52,0,0,1,.44-2.29,3.79,3.79,0,0,1,1.42-.92,2.8,2.8,0,0,1,3,.92,1,1,0,0,1,.49.7,2.54,2.54,0,0,1,0,1.59,1.63,1.63,0,0,0-.11.23,2.72,2.72,0,0,1-5.15,0Z"/><path class="cls-14" d="M339,54.58a1.26,1.26,0,0,1,0-.61,2.59,2.59,0,0,0-.52-1.68l6,0a1.88,1.88,0,0,1,1.38,0c.63.08.8.31.83.94,0,1.16-.15,1.42-1.39,1.4C343.17,54.56,341.08,54.58,339,54.58Z"/><path class="cls-14" d="M289.81,52.29a2.89,2.89,0,0,0-.52,2.29c-1.08,0-2.15,0-3.23,0a1.72,1.72,0,0,1-1.7-1.64.58.58,0,0,1,.48-.67,4.32,4.32,0,0,1,1.79-.07c.13.11.29.08.44.09Z"/><path class="cls-17" d="M286.63,52.2a7.15,7.15,0,0,1-1.79.07A2.68,2.68,0,0,1,287.26,50C287.11,50.75,286.75,51.44,286.63,52.2Z"/><path class="cls-18" d="M345.83,52.26h-1.38c-.19-.8-.16-1.62-.27-2.43.26,0,.52.08.78.15a1,1,0,0,1,.76.89C345.77,51.34,345.8,51.8,345.83,52.26Z"/><path class="cls-19" d="M326.56,48.41H305.21a3.37,3.37,0,0,1-.06-1c0-1,0-1.89,0-2.83,0-.35.13-.46.47-.47q6.33-.2,12.66-.16c2.63,0,5.26.07,7.89.15.4,0,.5.14.49.52,0,1.14,0,2.28,0,3.42C326.65,48.15,326.68,48.3,326.56,48.41Z"/><path class="cls-19" d="M331.31,48.44c-1.19,0-2.39,0-3.59,0-.31,0-.42-.1-.42-.42,0-1.16,0-2.33,0-3.5,0-.32.11-.42.42-.4.79,0,1.58.08,2.36.11a2.53,2.53,0,0,1,1.65.67l3.37,3c.11.1.28.18.22.37s-.27.17-.43.17Z"/><path class="cls-19" d="M304.5,48c0,.33-.12.45-.45.45l-7.54,0c-.16,0-.36.07-.45-.13s.09-.33.22-.46c.86-.85,1.71-1.7,2.58-2.54a4,4,0,0,1,1-.63,3.13,3.13,0,0,1,1.48-.38c.9-.06,1.8-.08,2.7-.14.33,0,.45.1.45.43C304.49,45.73,304.48,46.87,304.5,48Z"/><path class="cls-19" d="M290.82,53.93A1.13,1.13,0,0,1,292,52.8,1.14,1.14,0,0,1,293.11,54a1.15,1.15,0,1,1-2.29-.06Z"/><path class="cls-19" d="M335.16,53.94a1.11,1.11,0,0,1,1.15-1.14,1.17,1.17,0,1,1-1.15,1.14Z"/></g></svg>