<svg id="Layer_1" data-name="Layer 1" xmlns="http://www.w3.org/2000/svg" viewBox="0 0 200 200"><defs><style>.cls-1{fill:#4cd38e;}.cls-2{fill:#4bb57b;}.cls-3{fill:#02a598;}.cls-4{fill:#47c5bc;}.cls-5{fill:#fefefe;}.cls-6{fill:#244157;}.cls-7{fill:#fedc12;}.cls-8{fill:#40c5c2;}.cls-9{fill:#06a7b3;}.cls-10{fill:#0ead9d;}.cls-11{fill:#42c7d1;}.cls-12{fill:#4ed3d7;}.cls-13{fill:#f2f9f8;}.cls-14{fill:#f7fbfa;}.cls-15{fill:#00a59f;}.cls-16{fill:#04a4a4;}.cls-17{fill:#f6faf9;}.cls-18{fill:#e6f4f0;}.cls-19{fill:#02a6a0;}.cls-20{fill:#f7fdf9;}.cls-21{fill:#0aa6a5;}.cls-22{fill:#13aaa7;}.cls-23{fill:#0db3af;}.cls-24{fill:#390f01;}.cls-25{fill:#17a8af;}</style></defs><path class="cls-1" d="M96.42,197.43A87,87,0,0,1,80.1,195.5a95.26,95.26,0,0,1-34.53-14.58A97,97,0,0,1,7.8,131.82,93.13,93.13,0,0,1,3,109.24,96.93,96.93,0,0,1,14,54,95.12,95.12,0,0,1,28.78,33.41,96.84,96.84,0,0,1,71.56,6.69,95.11,95.11,0,0,1,90.7,2.91a101.14,101.14,0,0,1,13.59-.35,97.53,97.53,0,0,1,92,81.48,80.39,80.39,0,0,1,1.23,13.41,27.15,27.15,0,0,0,0,5.1,83.78,83.78,0,0,1-1.49,15,89.88,89.88,0,0,1-5.06,17.82c-.57-.13-.86-.61-1.23-1L131.36,76.05a3.29,3.29,0,0,0-1.05-.88c-.43-.76-1.24-1.11-1.84-1.69-2.58,0-5.17,0-7.75,0a1.3,1.3,0,0,1-.33-.07,1.12,1.12,0,0,1-.42-.25q-7-7-14-14c-2.54-2.55-5.1-5.08-7.62-7.65a8.81,8.81,0,0,0-1.94-1.44c-4.74,0-9.48-.08-14.22,0a4.79,4.79,0,0,0-2.11,3.16c-2.44,7.73-5,15.45-7.42,23.17-2.67,8.37-5.38,16.73-8,25.1a2.74,2.74,0,0,1-.74,1.5c-.53.27-1.05,0-1.56,0a23.09,23.09,0,0,0-12.7,1.54c-8.22,3.69-13.1,10-14.17,19-1,8.29,2,15.19,8.28,20.7a4.76,4.76,0,0,1,.62.57,10.11,10.11,0,0,0,1.36,1.49Q70.59,171.16,95.42,196C95.83,196.42,96.44,196.72,96.42,197.43Z"/><path class="cls-2" d="M130.43,75.06c.47-.16.59.3.81.51l59,59c.25.24.46.53.7.79a86.22,86.22,0,0,1-8.84,17.39c-13.82,21-32.86,34.95-57.17,41.58a92.75,92.75,0,0,1-21.28,3.15c-.35,0-.7,0-1.06,0a30.26,30.26,0,0,0-5.3,0h-.86q-6.58-6.63-13.19-13.26L45,146c-.27-.27-.51-.58-.76-.87.5-.27.8.14,1.13.36a23.43,23.43,0,1,0,23.48-40.39,3.28,3.28,0,0,1-1-.56.94.94,0,0,1,0-.72c1.28-3.8,2.38-7.65,3.75-11.41a.55.55,0,0,1,.75,0c2.38,2.72,4.64,5.54,7,8.3,1.55,1.85,3.1,3.69,4.62,5.56.52.71,1.12,1.35,1.66,2,.06.07.12.15.19.22,1.1,1.2,2.07,2.51,3.12,3.75,3.2,3.67,6.2,7.51,9.36,11.21,1,1.14,1.75,2.51,3.27,3.08a2.91,2.91,0,0,0,.3.17c4.78.06,9.57,0,14.36,0,.82,0,1.49.13,1.61,1.1a27.5,27.5,0,0,0,2.72,9.24c4,7.18,10,11.4,18.13,12.39a22.21,22.21,0,0,0,17-4.81,23.48,23.48,0,0,0,3.6-33.42A22.47,22.47,0,0,0,145,103.06a23.44,23.44,0,0,0-11.53,1.06,1.23,1.23,0,0,1-.42.07c-.64-.14-.78-.75-1.11-1.19a2,2,0,0,1-.14-.25,11.86,11.86,0,0,0-.56-1.13l-.14-.25c-.7-1.12-1.2-2.34-1.89-3.47-1.69-3.11-3.36-6.23-5.05-9.35-.22-.41-.56-.86-.17-1.37,0-2.64,0-5.28,0-7.92,0-.14-.18.08-.06,0s.08,0,.08.07c0,2.44,0,4.89,0,7.33a.79.79,0,0,1-.13.6c-.44-.11-.49-.5-.49-.84,0-2.67-.09-5.35,0-8a1,1,0,0,1,.12-.4c.29-.46.78-.42,1.23-.43,1,0,1.9,0,2.86,0,1.64,0,2.16-.43,2.61-2A1,1,0,0,1,130.43,75.06Z"/><path class="cls-3" d="M97.28,197.44a15,15,0,0,1,5.3,0A42.6,42.6,0,0,1,97.28,197.44Z"/><path class="cls-4" d="M197.48,102.55a13.26,13.26,0,0,1,0-5.1Z"/><path class="cls-5" d="M123.89,87.44l5,9.31c.2.37.37.76.55,1.14a9.75,9.75,0,0,0,1.93,3.6h0c.12.27-.06.41-.25.52,0,.1,0,.1.06,0,.43.08.55.52.86.73h0a2.15,2.15,0,0,0,1.34,2.11,26.64,26.64,0,0,1,2.22,3.79c2,3.88,4.24,7.67,6.13,11.63,0,.3,0,.62.35.8a1.74,1.74,0,0,1,.25.64c-.07.56.39.78.7,1.11.49.81,1,1.61.42,2.59-.1.24-.5.16-.52.5a.37.37,0,0,1-.19.18c-.46-.1-.15.42-.39.51a1.24,1.24,0,0,1-.82.28c-6.66,0-13.32,0-20,0q-9.3-.09-18.59,0a2.66,2.66,0,0,1-1.45-.18,1.64,1.64,0,0,1-1.38-.68L88.78,112.3a5,5,0,0,0-1.43-2.3c-.19-.16-.51-.33-.48-.54.17-1.14-.65-.91-1.27-1l0,0a3.33,3.33,0,0,0-.92-1.45c-.19-.15-.36-.33-.21-.61.09-.07.14-.18.25-.22-.13,0-.1.11-.17.15a.67.67,0,0,1-.67,0L73.94,94.56c-.54-.65-1-1.32-1.58-2-.15-.17-.19-.6-.55-.21Q70,98,68.26,103.61c-.09.27-.15.54-.23.81a2.2,2.2,0,0,1-.22,1.53c-.37,1.17-.77,2.33-1.15,3.5-1.75,5.69-3.64,11.34-5.44,17a2.58,2.58,0,0,1-1.91,2.06c-1.93.4-3.34-1.16-2.85-3.19.31-1.27.76-2.51,1.16-3.76,1.46-4.48,2.87-9,4.32-13.47.44-1.18.78-2.4,1.16-3.61a2.68,2.68,0,0,1,.74-1.48c1.71-5.28,3.43-10.56,5.12-15.84q5.61-17.42,11.17-34.85A3.08,3.08,0,0,1,82.21,50c.17-.17.39-.13.6-.13H96c.2,0,.42,0,.59.13a2.79,2.79,0,0,1,1.94,1.5,2,2,0,0,1-.88,2.87,3.8,3.8,0,0,1-2,.39H86c-1.73,0-1.74,0-2.26,1.6Q79.29,70.2,74.88,84c-.35,1.1-.27,1.2,1.05,1.2h41.88a5.91,5.91,0,0,0,.84,0A.71.71,0,0,0,119,85a49.49,49.49,0,0,0,.14-5.71c0-.52-.11-1.07.3-1.52a6.45,6.45,0,0,1,4.27.11c0,2.76,0,5.52,0,8.28,0,.38-.14.78.14,1.13.08,0,.12,0,.11.06S123.91,87.44,123.89,87.44Z"/><path class="cls-2" d="M119,85.5c-.39,0-.77,0-1.16,0H75.26c-1.2,0-1.2,0-.83-1.16Q79.05,70,83.64,55.56c.27-.84.6-1.17,1.52-1.15,3.58.06,7.17,0,10.75,0,2,0,2.8-.87,2.6-2.92.49,0,.62.45.88.71q9.58,9.56,19.15,19.13A7.22,7.22,0,0,1,120.05,73c-.39.41-.91.29-1.39.3-2.43,0-4.86-.06-7.29,0-.37.14-.73,0-1.11,0,.19,0,.42,0,.46.22-.14.33-.46.43-.72.61a1.67,1.67,0,0,0-.84,1.89,1.85,1.85,0,0,0,1.61,1.49,9.24,9.24,0,0,0,1.58,0c1.81,0,3.61,0,5.41,0,.48,0,1-.08,1.35.41.16,2.32,0,4.63.06,6.94A.77.77,0,0,1,119,85.5Z"/><path class="cls-6" d="M66.44,109.42l1.59-5a22.78,22.78,0,0,1,11.32,10,23.74,23.74,0,0,1-17.74,35.28,23.22,23.22,0,0,1-16.87-4.4,3.37,3.37,0,0,0-.46-.25,24.72,24.72,0,0,1-7.87-10.88,23.72,23.72,0,0,1,18.14-31.37,23.45,23.45,0,0,1,9.29.18q-.81,2.53-1.64,5.08a20.55,20.55,0,0,1-3.68,0,17.92,17.92,0,0,0-17.78,16.11,3.85,3.85,0,0,1-.09.67,4.79,4.79,0,0,0,0,2.29,3.91,3.91,0,0,1,.09.83,17.25,17.25,0,0,0,5.89,11.66A17,17,0,0,0,59,144.35a17.84,17.84,0,0,0,15.23-8.64,18.36,18.36,0,0,0-1.3-20.89,18.82,18.82,0,0,0-5.52-4.57C67,110,66.59,109.86,66.44,109.42Z"/><path class="cls-7" d="M119,77.89l-7.54,0c-1.59,0-2.49-.62-2.68-1.85s.45-2,2-2.57a.79.79,0,0,1,.59-.2c3,0,6.09-.15,9.13.07h7c.34,0,.71-.12,1,.13a2.73,2.73,0,0,1,2,1.63c.07,2-.71,2.77-2.66,2.79l-4.1,0h-4.3a.3.3,0,0,1-.2.1A.35.35,0,0,1,119,77.89Z"/><path class="cls-8" d="M96.57,50H82.21c-.24-.09-.48-.23,0-.23,1.77,0,3.55,0,5.32,0h9c.07,0,.19,0,.2,0C96.88,50,96.67,50,96.57,50Z"/><path class="cls-9" d="M120.49,73.41l-9.76,0-.78-.1c.43-.24.8-.09,1.15-.14A34.12,34.12,0,0,1,116,73.1a28.33,28.33,0,0,1,4.32.08h.21a.12.12,0,0,1,.06.15S120.51,73.41,120.49,73.41Z"/><path class="cls-10" d="M120.27,73.18H111.1c.32-.35.73-.21,1.1-.21h7.85Z"/><path class="cls-11" d="M120.49,73.41a1.62,1.62,0,0,1,0-.22h8.46l0,.17-.48.07Z"/><path class="cls-12" d="M58.56,102.17h1.2v.09H58.6Z"/><path class="cls-6" d="M135.37,108.76l-2.19-3.86c-.3-.21-.55-.44-.34-.86a23.73,23.73,0,0,1,31.57,16.64c3.28,13.35-6,27.09-19.47,28.94-13.76,1.88-25.57-7.28-27.23-21.12,0-.15,0-.28-.06-.42a1.66,1.66,0,0,1,0-1.12,38.22,38.22,0,0,1,4.9-.17,1.49,1.49,0,0,1,.36-.05.56.56,0,0,1,.23.25,19.88,19.88,0,0,0,1.06,5.29,17.68,17.68,0,0,0,14.48,11.84,18.12,18.12,0,0,0,12.91-32.86c-4.65-3.18-9.74-3.8-15.13-2.57C136.13,108.77,135.76,109,135.37,108.76Z"/><path class="cls-13" d="M123,126.79l-.09,0-.07,0c-1.71.24-3.43,0-5.14.11-5,0-10,0-15,0-.38,0-.78.12-1.14-.12,0-.06-.07-.11-.1-.16,3,0,6,0,9,0h31.27a.28.28,0,0,1-.14.36,3.1,3.1,0,0,1-1.35.15H124.48A2,2,0,0,1,123,126.79Z"/><path class="cls-14" d="M85.6,108.49c1-.59,1.68-.75,1.5.91,0,.39,1.08.89,1.36,1.6.17.42.66.76.32,1.3A42.78,42.78,0,0,1,85.6,108.49Z"/><path class="cls-15" d="M101.56,126.79c5.36-.08,10.71-.09,16.07,0,.15,0,.17.12.07.23l0,1.06c-.12-.89-.61-1.09-1.49-1.08-4.78,0-9.55,0-14.33,0a1.07,1.07,0,0,1-.29-.06A.71.71,0,0,1,101.56,126.79Z"/><path class="cls-16" d="M123.89,87.44a.13.13,0,0,1-.06-.14V78.73h.27C123.94,81.64,124.33,84.54,123.89,87.44Z"/><path class="cls-17" d="M131.32,101.49c-.53-.11-.91-.25-1-.95a5.52,5.52,0,0,0-.84-1.68c-.18-.32-.33-.62-.08-1A25.94,25.94,0,0,1,131.32,101.49Z"/><path class="cls-17" d="M132.84,104l.34.86a1.6,1.6,0,0,1-1.19-2.16C132.27,103.17,132.55,103.61,132.84,104Z"/><path class="cls-14" d="M84.5,106.38a14.26,14.26,0,0,0,1,1.31c.26.28,0,.52.07.78a12.75,12.75,0,0,1-1.72-2.09A.57.57,0,0,1,84.5,106.38Z"/><path class="cls-17" d="M132,102.75l-1.1-.62h0l.43-.65A3.05,3.05,0,0,1,132,102.75Z"/><path class="cls-18" d="M71.81,92.37c-.24-.13-.17-.32,0-.36.43-.08.52.22.53.57C72.18,92.5,72.06,92.28,71.81,92.37Z"/><path class="cls-2" d="M66.44,109.42A18.44,18.44,0,1,1,40.5,128.93a8,8,0,0,1,0-.85,2.88,2.88,0,0,0,.07-1.21.4.4,0,0,1-.12.43,5,5,0,0,1,0-2.47.66.66,0,0,1,.14.63,3.78,3.78,0,0,0-.09-1.2,17.3,17.3,0,0,1,5.86-11.68A18.07,18.07,0,0,1,62.2,108.1l-5.07,16c-.13.41-.26.81-.37,1.22a2.17,2.17,0,1,0,4.12,1.29c1.07-3.33,2.13-6.67,3.21-10C64.86,114.19,65.65,111.8,66.44,109.42Z"/><path class="cls-2" d="M141.68,126.77a1.22,1.22,0,0,1,.07-.17c.28.09.42-.16.62-.26a.8.8,0,0,1,.48-.34h0a.53.53,0,0,1,.36-.47c.61-1-.12-1.87-.44-2.76a1.63,1.63,0,0,1-.61-1c-.26-.15-.13-.45-.26-.65-.31-.11-.19-.46-.38-.64q-2.72-5.13-5.45-10.26c-.24-.47-.47-.94-.7-1.42a18.43,18.43,0,1,1,5.46,35.87c-9.41-.24-17.44-7.92-17.85-17.08,0-.17,0-.35,0-.53a2.37,2.37,0,0,1,1.15-.09l16.53,0C141,126.91,141.39,127.08,141.68,126.77Z"/><path class="cls-2" d="M117.45,90.62c-2.69,5-5.36,10-8.06,15.07q-3.78,7.08-7.59,14.13c-.26.48-.37,1-1,.24q-12.27-14.82-24.6-29.59c-.06-.08-.11-.18-.17-.27a2.08,2.08,0,0,1,1.16-.08c13,0,26,0,38.94,0C116.65,90,117.15,90.06,117.45,90.62Z"/><path class="cls-2" d="M117.94,122.32H105.37c5.39-10,10.71-19.9,16.16-30,2.53,4.71,5,9.24,7.4,13.77-.69,1-1.81,1.42-2.69,2.18a23.17,23.17,0,0,0-7.78,12.83A1.93,1.93,0,0,1,117.94,122.32Z"/><path class="cls-2" d="M131.35,110.67l6.36,11.66H123.29a1.08,1.08,0,0,1,0-1A18.51,18.51,0,0,1,130.49,111,1.1,1.1,0,0,1,131.35,110.67Z"/><path class="cls-6" d="M131.35,110.67a18.75,18.75,0,0,0-8.06,11.66h-5.35A23.43,23.43,0,0,1,128,106.59a9.11,9.11,0,0,1,.92-.52Z"/><path class="cls-19" d="M117.45,90.62l-1-.41a2.26,2.26,0,0,1-1.15.1H78.09a2.52,2.52,0,0,0-1.25.1A1.5,1.5,0,0,0,76,90.2c-.18-.13-.25-.24,0-.29l.7-.1a2.49,2.49,0,0,0,1,.08h37.88a4.51,4.51,0,0,0,1.16-.08.09.09,0,0,0,.15,0c.24.17.55-.27.73,0a.59.59,0,0,1-.21.8Z"/><path class="cls-20" d="M116.85,89.82c-.31,0-.63.09-.94.09q-19.05,0-38.11,0a2.06,2.06,0,0,1-1-.1l19.36,0h19.36c.59,0,1.24.16,1.39-.78C117.16,89.41,116.88,89.59,116.85,89.82Z"/><path class="cls-20" d="M115.93,89.5H76.14v-.2H116Z"/><path class="cls-13" d="M125,126.2h14.75v.11H125Z"/><path class="cls-13" d="M102.86,126.23H116v.11H102.84Z"/><path class="cls-21" d="M119,77.89h.21a53.27,53.27,0,0,1,0,7.58l-.21,0Z"/><path class="cls-22" d="M119.18,85.48V77.9a.25.25,0,0,1,.19,0c0,2.21,0,4.42,0,6.63C119.36,84.84,119.56,85.23,119.18,85.48Z"/><path class="cls-20" d="M117.52,90.66c.41-.64,0-.78-.52-.84l.72-.82c.37.39.13.86.18,1.29a6.06,6.06,0,0,1,0,.74C117.6,91.09,117.73,90.69,117.52,90.66Z"/><path class="cls-13" d="M142.16,121.73a1.67,1.67,0,0,1,.61,1C142.24,122.61,141.8,122.4,142.16,121.73Z"/><path class="cls-13" d="M143.21,125.53a.64.64,0,0,1-.36.47c-.1-.24-.38-.45-.15-.72C142.73,125.25,143,125.44,143.21,125.53Z"/><path class="cls-13" d="M141.52,120.44l.38.64C141,121.32,141.62,120.67,141.52,120.44Z"/><path class="cls-13" d="M142.85,126c-.1.21-.22.37-.48.34L142,126C142.31,125.76,142.58,126.05,142.85,126Z"/><path class="cls-14" d="M85.32,106l-.82.36c0-.21.1-.39.35-.4A2.7,2.7,0,0,1,85.32,106Z"/><path class="cls-17" d="M130.89,102.13c0,.16,0,.36-.28.32-.05,0-.13-.18-.11-.25.06-.27.25-.1.39-.07Z"/><path class="cls-23" d="M40.47,124.26c.35.48.16,1,0,1.5l-.09-.93C40.44,124.64,40.45,124.45,40.47,124.26Z"/><path class="cls-23" d="M40.42,127.3l.1-.71c.11.51.31,1-.05,1.49Z"/><path class="cls-15" d="M141.68,126.77c-.15.56-.59.24-.86.24-5.94,0-11.88,0-17.82,0l0-.23,14.24-.05C138.7,126.74,140.19,126.76,141.68,126.77Z"/><path class="cls-24" d="M117.7,127l-.07-.23a34.45,34.45,0,0,1,5.18,0c-.79.45-1.65.15-2.47.2S118.58,127,117.7,127Z"/><path class="cls-25" d="M76.84,90.42c.39-.38.87-.2,1.31-.2h38.27c-.35.37-.8.21-1.21.21Q96,90.44,76.84,90.42Z"/></svg>