<svg id="Layer_1" data-name="Layer 1" xmlns="http://www.w3.org/2000/svg" viewBox="0 0 100 100"><defs><style>.cls-1{opacity:0.56;}.cls-2{fill:#4d4d4d;}.cls-3{fill:#f2f2f2;}.cls-4{fill:none;stroke:#4d4d4d;stroke-linecap:round;stroke-miterlimit:10;stroke-width:5px;}</style></defs><g class="cls-1"><path class="cls-2" d="M97.38,50a47.5,47.5,0,0,1-2.93,16.5c-.24.62-.48,1.24-.73,1.85A47.38,47.38,0,0,1,50,97.59c-.68,0-1.36,0-2,0l-.58,0A47.59,47.59,0,1,1,97.38,50Z"/><path class="cls-3" d="M72.52,50A22.58,22.58,0,0,1,50,72.62l-1,0A22.62,22.62,0,1,1,72.52,50Z"/><polyline class="cls-4" points="50 35.61 50 50.21 64.36 50.21"/></g></svg>