<svg id="Layer_1" data-name="Layer 1" xmlns="http://www.w3.org/2000/svg" xmlns:xlink="http://www.w3.org/1999/xlink" viewBox="0 0 100 100"><defs><style>.cls-1{fill:none;}.cls-2{clip-path:url(#clip-path);}.cls-3{fill:#4bb57b;}.cls-4{fill:#a5e2c9;}.cls-5{fill:#eff9f5;}.cls-6{fill:#eaf3ef;}.cls-7{fill:#a4e2c9;}.cls-8{fill:#fdfefd;}.cls-9{fill:#fdfdfd;}.cls-10{fill:#fdfefe;}.cls-11{fill:#80a596;}.cls-12{fill:#4cd38e;}.cls-13{fill:#fefefe;}.cls-14{fill:#fedc12;}.cls-15{fill:#244157;stroke:#244157;stroke-miterlimit:10;stroke-width:0.59px;}.cls-16{fill:#427189;}</style><clipPath id="clip-path"><ellipse class="cls-1" cx="50" cy="50" rx="47.5" ry="47.59"/></clipPath></defs><g class="cls-2"><path class="cls-3" d="M99.16,92.21v.59A7.5,7.5,0,0,1,97.77,96a6.45,6.45,0,0,1-5.57,2.31q-20,0-39.93,0a2.36,2.36,0,0,1-1.75-.94Q40.25,87,30,76.73a6.27,6.27,0,0,1-.5-.54c-.24-.31-.56-.64-.37-1s.63-.42,1-.43c2.15,0,4.3,0,6.46,0,2.54,0,5.09.08,7.63-.06,4.47,0,8.94-.1,13.41,0,4.36-.14,8.72,0,13.08-.06,2.31,0,2.32,0,2.32-2.27q0-10,0-20A10.19,10.19,0,0,1,73.17,50c.2-.64.59-.72,1.11-.37s1,.84,1.45,1.22a12.47,12.47,0,0,1,1.53,1.38L97.8,72.76c.51.51,1.13,1,1.21,1.78V75c0,5.2,0,10.39,0,15.59A2.94,2.94,0,0,0,99.16,92.21Z"/><path class="cls-4" d="M7.58.75H93.27a.37.37,0,0,1-.17.49A4.18,4.18,0,0,1,91,1.56q-40.53,0-81,0a4.32,4.32,0,0,1-2.16-.31A.38.38,0,0,1,7.58.75Z"/><path class="cls-5" d="M1.69,91.92V7.24a.37.37,0,0,1,.49.17,4.21,4.21,0,0,1,.31,2.16q0,40,0,80a4.33,4.33,0,0,1-.32,2.16A.38.38,0,0,1,1.69,91.92Z"/><path class="cls-6" d="M51.74,98.09l39.34,0c.53,0,1.07,0,1.61,0,.09.06.12.11.09.17a.14.14,0,0,1-.1.08H8.46a.38.38,0,0,1,.17-.5,4.16,4.16,0,0,1,2.15-.31H49.33A4.38,4.38,0,0,1,51.74,98.09Z"/><path class="cls-7" d="M98.86,74.52a1,1,0,0,1,0-.23,6.13,6.13,0,0,1-.47-2.58q0-31.36,0-62.73a4.32,4.32,0,0,1,.31-2.16.38.38,0,0,1,.5-.17V74.51C99.06,74.65,99,74.65,98.86,74.52Z"/><path class="cls-8" d="M8.45,98.15c0,.09,0,.17,0,.26-2,0-4,0-6,0-.63,0-.77-.12-.75-.76.05-1.92,0-3.84,0-5.75h.25a1.43,1.43,0,0,1,.62,1,6.73,6.73,0,0,0,5,4.77A1.21,1.21,0,0,1,8.45,98.15Z"/><path class="cls-8" d="M1.94,7.23H1.69c0-1.92,0-3.84,0-5.75,0-.64.12-.78.75-.76,1.72.05,3.44,0,5.16,0a1.24,1.24,0,0,1,0,.27C6.84,1.78,5.75,1.9,5,2.6a7.43,7.43,0,0,0-2.5,3.65A1.32,1.32,0,0,1,1.94,7.23Z"/><path class="cls-9" d="M92.68,98.41v-.25a7,7,0,0,0,6-4.68c.09-.25.11-.59.47-.68,0,1.62,0,3.25,0,4.87,0,.64-.12.77-.76.76C96.51,98.37,94.6,98.41,92.68,98.41Z"/><path class="cls-10" d="M99.16,6.65a.37.37,0,0,0-.25-.05c-.38-.22-.45-.63-.59-1a6.77,6.77,0,0,0-4-4c-.35-.14-.76-.21-1-.59a2.21,2.21,0,0,0,0-.25c1.77,0,3.53,0,5.3,0,.51,0,.62.09.61.61C99.13,3.11,99.16,4.88,99.16,6.65Z"/><path class="cls-11" d="M98.86,74.52h.3v17.7c-.51-.42-.28-1-.28-1.51Q98.85,82.6,98.86,74.52Z"/><path class="cls-12" d="M93.32,1a6.53,6.53,0,0,1,5.59,5.6c0,1.91,0,3.83,0,5.75q0,29.94,0,59.88c0,.68,0,1.37,0,2.06L77.57,53.09c-.66-.65-1.35-1.28-2-1.92.18-1.31,1.36-1.85,2.12-2.7,1.17-1.29,1.22-1.26,0-2.45q-12.95-13-25.91-26c-1.19-1.19-1.25-1.19-2.46,0-8.67,8.68-17.33,17.39-26,26-.9.9-.9,1.48.06,2.22a5.46,5.46,0,0,1,.93.93c.75.94,1.48,1.19,2.4.18.45-.49,1-.66,1.3.27a34.13,34.13,0,0,1,.12,4.85c0,6,0,12,0,17.94,0,1.87,0,1.84,1.88,1.82,4-.06,8,0,12,0a3.13,3.13,0,0,1,1.57.27.42.42,0,0,1,.23.47h-15l22.89,23-41.53,0c-.59,0-1.17,0-1.76,0-3.64-.47-5.68-2.42-6.51-6.23,0-.78,0-1.57,0-2.35V9c0-.59,0-1.18,0-1.77A6.87,6.87,0,0,1,7.55,1H88.17C89.89,1,91.61,1,93.32,1Z"/><path class="cls-13" d="M43.76,74.83l-13.66,0c-2.5,0-2.5,0-2.5-2.53l0-23.09c-.29-.67.26-1,.61-1.35Q38.71,37.3,49.26,26.73a1.41,1.41,0,0,1,2.35,0Q62.29,37.5,73,48.22c.34.34.74.67.69,1.24,0,7.94-.06,15.89,0,23.84,0,1.44-.4,1.79-1.8,1.76C67.14,75,62.39,75,57.64,75c-.67-.68-.5-1.56-.5-2.37,0-5.75,0-11.5,0-17.25,0-2.07-.08-2.14-2.17-2.14H46.42c-2,0-2.11.08-2.11,2.19,0,5.7,0,11.4,0,17.1C44.29,73.29,44.47,74.17,43.76,74.83Z"/><path class="cls-14" d="M43.76,74.83c0-6.82.07-13.64,0-20.46,0-1.48.43-1.76,1.8-1.73,3.57.1,7.15.08,10.72,0,1.11,0,1.39.3,1.38,1.4,0,7,0,13.93,0,20.9l-13.81.1A.57.57,0,0,0,43.76,74.83Z"/><path class="cls-15" d="M46.72,40.67c.15-1-.56-2.64.29-3.45s2.33-.2,3.55-.19,2.88-.55,3.68.24.25,2.42.25,3.68.55,2.88-.24,3.7-2.42.25-3.68.26-2.78.53-3.55-.21-.19-2.41-.3-3.66Z"/><rect class="cls-15" x="46" y="36.84" width="9.16" height="8.57"/><path class="cls-16" d="M78.51,46.23Q65.06,32.83,51.68,19.34c-.89-.9-1.3-.82-2.15,0q-6.9,7-13.85,13.88V27.82a1.25,1.25,0,0,0-1.24-1.25H30.28A1.25,1.25,0,0,0,29,27.82V39.37a1.16,1.16,0,0,0,.08.42q-2.86,2.85-5.72,5.71c-1.76,1.75-1.76,1.75,0,3.54,2,2,2,2,4.14.2Q38.73,38,49.88,26.78c.53-.54.8-.45,1.28,0Q62.41,38.15,73.69,49.46l1.86,1.71c1-1,1.92-2.11,3-3C79.4,47.39,79.27,47,78.51,46.23Z"/></g></svg>