<svg id="Layer_1" data-name="Layer 1" xmlns="http://www.w3.org/2000/svg" viewBox="0 0 120 120"><defs><style>.cls-1{fill:#fff;}</style></defs><path class="cls-1" d="M108,70.7h-7.88a1.53,1.53,0,0,0-1.51,1.54V102.6a1.52,1.52,0,0,1-1.5,1.54H68.89a1.53,1.53,0,0,1-1.51-1.54V83.06a1.52,1.52,0,0,0-1.5-1.54H54a1.52,1.52,0,0,0-1.5,1.54V102.6a1.53,1.53,0,0,1-1.51,1.54H22.73a1.53,1.53,0,0,1-1.51-1.54V72.24a1.52,1.52,0,0,0-1.5-1.54H12a1.55,1.55,0,0,1-1.09-2.61l48-51.75a1.48,1.48,0,0,1,2.18,0L77.18,33.68a1.5,1.5,0,0,0,2.59-1.06V24.5A1.53,1.53,0,0,1,81.28,23h9.27a1.52,1.52,0,0,1,1.5,1.54V49.11a1.56,1.56,0,0,0,.41,1.06l16.62,17.92A1.55,1.55,0,0,1,108,70.7Z"/></svg>