<svg id="Layer_1" data-name="Layer 1" xmlns="http://www.w3.org/2000/svg" viewBox="0 0 100 100"><defs><style>.cls-1{fill:none;stroke:#02bdad;stroke-miterlimit:10;stroke-width:3px;}.cls-2{fill:#02bdad;}</style></defs><path class="cls-1" d="M50,2.62A47.38,47.38,0,1,0,97.38,50,47.38,47.38,0,0,0,50,2.62Z"/><path class="cls-2" d="M75,48.42a2.09,2.09,0,0,0-1.55-1.9,15.86,15.86,0,0,0-2.58-.05,2.3,2.3,0,0,1-2.4-1,24.81,24.81,0,0,1-1.7-3.17,14.81,14.81,0,0,0-2.89-4.18,6.47,6.47,0,0,0-1.12-.76,8.62,8.62,0,0,0-3.1-1.55,11.85,11.85,0,0,0-1.47-.46,3,3,0,0,1-2.66-2c-.42-1.14-1.08-2.13-2.5-2.11-2.23,0-4.45.08-6.68.16a1.57,1.57,0,0,0-1.52,1.1,15.15,15.15,0,0,1-1.24,2.13A1.15,1.15,0,0,1,43,35c-1.13.38-2.32.55-3.45,1a5.28,5.28,0,0,0-2,1.1,2.44,2.44,0,0,1-.4.32A10.12,10.12,0,0,0,34,40.73a8.72,8.72,0,0,0-1.38,2.76c0,.1-.14.18-.2.28a6,6,0,0,0-.5,1,2.06,2.06,0,0,1-2.38,1.68,29.91,29.91,0,0,0-3.28,0A1.23,1.23,0,0,0,25,47.86c0,.55,0,1.11,0,1.67,0,.38.13.59.48.63a15.3,15.3,0,0,0,1.66.17c.81,0,1.13.24,1.31,1a5.92,5.92,0,0,1,.13,1.26c0,2.4,0,4.81,0,7.21a4.6,4.6,0,0,0,1.55,3.67,2.28,2.28,0,0,1,.65,1.17,7,7,0,0,1,0,1.89,2,2,0,0,0,1.92,2.23c.87,0,1.73,0,2.59,0a2.22,2.22,0,0,0,2.31-2.48,4.69,4.69,0,0,1,0-.75,1.31,1.31,0,0,1,1.27-1.39,15.29,15.29,0,0,1,1.66,0c3.58,0,7.15,0,10.73,0,3.07,0,6.15,0,9.22-.06,1.59,0,1.95.35,1.88,1.93a3.73,3.73,0,0,0-.05.74,2.46,2.46,0,0,0,.29,1,2,2,0,0,0,2,1,8.85,8.85,0,0,1,1,0h0c.54,0,1.08,0,1.62,0a1.65,1.65,0,0,0,1.65-1.66,4.81,4.81,0,0,0-.07-.92,2.8,2.8,0,0,1,1.07-2.81,3.06,3.06,0,0,0,1.2-2.55c0-1.38.09-2.76.07-4.13S71.13,54.23,71,53c-.11-1.49.63-2.73,2.32-2.69a1,1,0,0,0,.29,0A1.36,1.36,0,0,0,75,48.76ZM37.91,57.81a4.09,4.09,0,0,1-2.2,1c-1.13.15-2.89-1.74-2.85-2.89a3,3,0,0,1,3-2.9,2.91,2.91,0,0,1,2.72,3.09A4.38,4.38,0,0,1,37.91,57.81Zm21.81-9.66H36.83a2.16,2.16,0,0,0-.57,0,1.36,1.36,0,0,1-1.65-.49A1.53,1.53,0,0,1,34.76,46,14.45,14.45,0,0,0,36,43.44a9,9,0,0,1,1.58-2.14c.08-.1.21-.18.26-.3a3.8,3.8,0,0,1,2.28-1.8,17,17,0,0,1,2.54-.89,14.61,14.61,0,0,1,2.57-.14c.44,0,.88.06,1.32,0,2.62,0,5.23,0,7.85,0a15.4,15.4,0,0,1,2.35,0,10.27,10.27,0,0,1,5.15,2.61,10.94,10.94,0,0,1,2.46,3.76c.25.51.56,1,.84,1.49a3,3,0,0,1,.35.78,1,1,0,0,1-1.11,1.35C62.88,48.17,61.3,48.15,59.72,48.15ZM65.86,58l-.85.58a1.62,1.62,0,0,1-1.93-.08,10.57,10.57,0,0,1-1.59-1.38,2,2,0,0,1,.21-2.7,10.26,10.26,0,0,1,1.08-1c1.45-1,2.82-.3,3.72,1A4.41,4.41,0,0,1,67,55.64,2.77,2.77,0,0,1,65.86,58Z"/></svg>