<svg id="Layer_1" data-name="Layer 1" xmlns="http://www.w3.org/2000/svg" viewBox="0 0 300 180"><defs><style>.cls-1,.cls-3{fill:#02bdad;}.cls-1{stroke:#02bdad;stroke-miterlimit:10;stroke-width:2px;}.cls-2{fill:#01bdad;}.cls-4{fill:#07bfaf;}</style></defs><path class="cls-1" d="M113.76,114.07c2.68-.18,5-.87,6.43-2.32,1.61-1.76,2.21-4.14,2.21-11.43V74.9h5.9v27.56c0,5.9-1,9.73-3.89,12.49-2.61,2.45-6.9,3.46-10,3.46ZM129,66.36c.06,1.82-1.34,3.39-3.69,3.39a3.41,3.41,0,0,1-3.61-3.39,3.51,3.51,0,0,1,3.75-3.46A3.37,3.37,0,0,1,129,66.36Z"/><path class="cls-1" d="M167.28,89.84c0,11.24-8.31,16.14-16.15,16.14-8.77,0-15.53-6-15.53-15.64,0-10.17,7.1-16.14,16.07-16.14C161,74.2,167.28,80.55,167.28,89.84Zm-25.72.31c0,6.66,4.08,11.68,9.84,11.68s9.85-5,9.85-11.8c0-5.15-2.75-11.68-9.71-11.68S141.56,84.38,141.56,90.15Z"/><path class="cls-1" d="M181.27,66.36c.07,1.88-1.4,3.39-3.75,3.39A3.4,3.4,0,0,1,174,66.36a3.49,3.49,0,0,1,3.69-3.46A3.39,3.39,0,0,1,181.27,66.36Zm-6.56,38.92V74.9h5.89v30.38Z"/><path class="cls-1" d="M190.38,83.12c0-3.14-.07-5.71-.27-8.22h5.23l.33,5h.14a12,12,0,0,1,10.71-5.72C211,74.2,218,76.72,218,87.14v18.14h-5.89V87.77c0-4.9-1.94-9-7.5-9a8.29,8.29,0,0,0-7.9,5.65,7.42,7.42,0,0,0-.4,2.57v18.27h-5.9Z"/><path class="cls-1" d="M254.68,97c0,3.14.06,5.9.27,8.28h-5.23l-.33-5h-.14A12.33,12.33,0,0,1,238.54,106c-5.09,0-11.19-2.64-11.19-13.32V74.9h5.9V91.72c0,5.78,1.87,9.67,7.23,9.67a8.51,8.51,0,0,0,7.77-5,7.75,7.75,0,0,0,.53-2.83V74.9h5.9Z"/><path class="cls-1" d="M264.46,84.82c0-3.9-.14-7-.27-9.92h5.29l.27,5.21h.13c2.41-3.71,6.23-5.91,11.52-5.91,7.84,0,13.73,6.22,13.73,15.45,0,10.93-7.1,16.33-14.73,16.33-4.29,0-8-1.76-10-4.78h-.14v16.52h-5.82Zm5.82,8.1a12.06,12.06,0,0,0,.27,2.26,9,9,0,0,0,8.84,6.46c6.23,0,9.85-4.77,9.85-11.74,0-6.09-3.42-11.3-9.65-11.3a9.27,9.27,0,0,0-8.9,6.84,8.2,8.2,0,0,0-.41,2.26Z"/><path class="cls-2" d="M77.26,74c0-5.51.16-11-.06-16.53-.12-2.9.88-4,4-3.78,2.48.2,5.21-.59,5,3.36-.48,12.29.9,24.64-.73,36.89-2.5,18.69-20.08,32.63-40.4,32.45C25,126.19,7.58,111.62,5.51,93c-.2-1.81-2.28-5,2.35-5.42,3.72-.31,5.77.16,6.46,4.53C17,109,31.3,119.4,49.12,117.93c16.19-1.35,28-14.25,28.13-30.71C77.29,82.81,77.26,78.4,77.26,74Z"/><path class="cls-3" d="M63.05,73c0-5.33.15-10.66,0-16-.11-2.86,1.29-3.52,3.88-3.25,2.12.23,5.09-.93,5.05,2.76-.14,11.75.39,23.56-.6,35.24-1,12.18-12.23,21.09-25,21.39S22.24,105,19.89,93c-.34-1.71-2.41-4.75,1.49-5.28,3-.41,6.32-1.27,7.28,3.69,1.76,9.16,9.68,14.21,19.19,13.23,8.84-.92,15-7.74,15.19-16.82C63.11,82.87,63.05,77.91,63.05,73Z"/><path class="cls-4" d="M31.49,62.05c-7.45,0-14.91-.17-22.35.07-3.7.11-4-1.55-4.08-4.34-.06-3,.72-4.18,4.22-4.15,14.9.17,29.8.2,44.7,0,4.18-.06,3.47,2.18,3.67,4.58.24,2.8-.55,4-3.8,3.91C46.4,61.93,38.94,62.05,31.49,62.05Z"/><path class="cls-4" d="M31.48,75.36c-7.45,0-14.91-.17-22.35.07-3.72.11-4-1.59-4.06-4.36-.07-3,.69-4.2,4.2-4.16q22.35.25,44.7,0c3.47,0,3.72,1.46,3.68,4s.14,4.63-3.83,4.49C46.38,75.18,38.93,75.36,31.48,75.36Z"/></svg>