<svg id="Layer_1" data-name="Layer 1" xmlns="http://www.w3.org/2000/svg" viewBox="0 0 120 120"><defs><style>.cls-1{fill:#244157;}</style></defs><path class="cls-1" d="M60,12.28a47.71,47.71,0,0,0-2,95.39c.68,0,1.36,0,2,0a47.94,47.94,0,0,0,45-31.18A47.72,47.72,0,0,0,60,12.28ZM92.18,61c-.63,5.55-3.79,9.2-9.07,10.93A3.39,3.39,0,0,0,81,73.86a31.58,31.58,0,0,1-6.83,9A13.52,13.52,0,0,1,68.88,86a12,12,0,0,0-2.6,1,4,4,0,0,1-7.48-.53s0,0,0,0a5,5,0,0,1-.14-.67.09.09,0,0,1,0,0,4.28,4.28,0,0,1-.05-.49,4.06,4.06,0,0,1,7.79-1.63c.87.36,1.71-.06,2.69-.47,5.08-2.14,10.58-11.78,10.58-17.24,0-4.88,0,0-.1-13a13.9,13.9,0,0,0-3.65-10.2c-4.78-5.58-10.87-8-18.15-7C50.18,36.67,45,41,42,47.94a6.09,6.09,0,0,0-.43,2.56c0,3.29,0,6.57,0,9.86s-.08,6.86,0,10.29c.05,1.62-.48,2-2,1.75A13,13,0,0,1,28.92,62.12a12.72,12.72,0,0,1,6.73-13.73,4.8,4.8,0,0,0,2.43-2.55C42.56,36.19,50.1,30.9,60.81,31s17.94,5.63,22.34,15.15a4.06,4.06,0,0,0,2,2.12A12.51,12.51,0,0,1,92.18,61Z"/></svg>