<svg id="Layer_1" data-name="Layer 1" xmlns="http://www.w3.org/2000/svg" viewBox="0 0 100 100"><defs><style>.cls-1{fill:#4cd38e;}.cls-2{fill:#4bb57b;}.cls-3{fill:#fff;}</style></defs><path class="cls-1" d="M97.38,50A47.52,47.52,0,0,1,50,97.59c-.68,0-1.36,0-2,0A47.58,47.58,0,1,1,97.38,50Z"/><path class="cls-2" d="M94.45,66.5A47.41,47.41,0,0,1,50,97.59c-.68,0-1.36,0-2,0L32.12,77.41l46.7-33.82Z"/><path class="cls-3" d="M41,39.1l8.23-16.34a1.14,1.14,0,0,1,2.05,0l7.85,16.53A1.14,1.14,0,0,0,60,40L77.91,42.8a1.16,1.16,0,0,1,.61,2L65.37,57.42a1.16,1.16,0,0,0-.34,1l2.86,18.1a1.15,1.15,0,0,1-1.68,1.2L50.24,69a1.16,1.16,0,0,0-1.07,0L33,77.34a1.14,1.14,0,0,1-1.65-1.23l3.28-18a1.15,1.15,0,0,0-.32-1L21.46,44.1a1.16,1.16,0,0,1,.65-2l18-2.42A1.15,1.15,0,0,0,41,39.1Z"/></svg>