<svg id="Layer_1" data-name="Layer 1" xmlns="http://www.w3.org/2000/svg" viewBox="0 0 200 200"><defs><style>.cls-1{fill:#4cd38e;}.cls-2{fill:#4bb57b;}.cls-3{fill:#fff;}</style></defs><path class="cls-1" d="M198.45,100a97.38,97.38,0,0,1-6.08,34A98.45,98.45,0,0,1,100,198c-1.42,0-2.83,0-4.22-.1C43.36,195.72,1.55,152.72,1.55,100,1.55,45.88,45.62,2,100,2S198.45,45.88,198.45,100Z"/><path class="cls-2" d="M192.37,134A98.45,98.45,0,0,1,100,198c-1.42,0-2.83,0-4.22-.1L62.84,156.45,159.9,86.8Z"/><path class="cls-3" d="M81.27,77.55,98.37,43.9a2.38,2.38,0,0,1,4.27.05l16.3,34a2.38,2.38,0,0,0,1.78,1.32L158,85.18a2.38,2.38,0,0,1,1.27,4.07l-27.34,26a2.37,2.37,0,0,0-.71,2.09l5.94,37.28a2.37,2.37,0,0,1-3.47,2.47l-33.21-18a2.4,2.4,0,0,0-2.21,0L64.66,156.31a2.38,2.38,0,0,1-3.42-2.55l6.82-37.13a2.36,2.36,0,0,0-.66-2.11L40.68,87.86a2.38,2.38,0,0,1,1.37-4l37.42-5A2.38,2.38,0,0,0,81.27,77.55Z"/></svg>