<svg id="Layer_1" data-name="Layer 1" xmlns="http://www.w3.org/2000/svg" viewBox="0 0 100 100"><defs><style>.cls-1{fill:#4cd38e;}.cls-2{fill:#4bb57b;}.cls-3{fill:#dd5865;}.cls-4{fill:#344e5f;}.cls-5{fill:#ccc;}.cls-6{fill:#184261;}.cls-7{fill:#324e5f;}.cls-8{fill:none;}</style></defs><path class="cls-1" d="M97.38,50c0,1,0,1.91-.1,2.86A47.35,47.35,0,0,1,50,97.59c-1.18,0-2.35,0-3.51-.13A47.58,47.58,0,1,1,97.38,50Z"/><path class="cls-2" d="M94.34,66.77A47.3,47.3,0,0,1,50,97.59c-1.18,0-2.35,0-3.51-.13L26.2,71,75.52,38.86Z"/><path class="cls-1" d="M75.52,38.86v1a5,5,0,0,0-.6-.36l0,0a4.83,4.83,0,0,0-4-1.76,10,10,0,0,1-3.09-.23q-.48-.33-.93-.69h0c-.3-.25-.59-.49-.87-.75h0c-1.32-1.18-2.51-2.52-3.79-3.76l-.76-.72L61,31.17c-.94-.87-1.81-1.89-3.31-1.67a49.93,49.93,0,0,0-15.53.18c-1.93-.06-2.43,1.14-2.56,2.79-.1,1.29.2,2.66-.31,3.87a3.19,3.19,0,0,1-.23.45,3.32,3.32,0,0,1-.34.45c-1.14.71-2.42.46-3.64.5-1.94.06-3.88,0-5.82,0-2.87.1-3.69.93-3.76,3.78-.06,2.29.06,4.59-.16,6.88v.05c0,.22,0,.44,0,.66q0,.59,0,1.17c0,.23,0,.45,0,.68h0c.3,5.13.07,10.26.15,15.38,0,1.35.09,2.65,1.16,3.65a2.54,2.54,0,0,0,.16.38,3.13,3.13,0,0,0,.36.58h-.94a3.89,3.89,0,0,1-1.71-3.35c.06-5.55.05-11.1.07-16.65,0-.84,0-1.68,0-2.51,0-2.63-.09-5.26-.06-7.88s1.05-3.65,3.66-3.72c3.5-.1,7-.08,10.52-.1,0-1.74,0-3.47,0-5.2s.86-3,2.85-3.08h17c1.54-.15,2.2,1,2.88,2a48.31,48.31,0,0,1,6.3,6.25c1.29,0,2.58.06,3.86.06A4.15,4.15,0,0,1,75.52,38.86Z"/><path class="cls-3" d="M75.56,67.48c0,2.59-.94,3.53-3.51,3.53Q49.6,71,27.13,71h-.94a3.89,3.89,0,0,1-1.71-3.35c.06-5.55.05-11.1.07-16.65a1.93,1.93,0,0,1,.78-.68,3.38,3.38,0,0,1,1.39-.26c5.22-.08,10.44-.09,15.65,0a3.19,3.19,0,0,1,2,.54l0,0a5,5,0,0,0,.33.44c2,2.37,4.84,1.86,7.57,1.86,1.52,0,2.09-1.23,3-2a3.72,3.72,0,0,1,.45-.33h0A4.19,4.19,0,0,1,58.29,50q7.21-.07,14.43,0a4.59,4.59,0,0,1,2,.27,2,2,0,0,1,.79.71C75.53,56.5,75.57,62,75.56,67.48Z"/><path class="cls-3" d="M75.52,38.86v1c0,2.87,0,5.73,0,8.6a2.13,2.13,0,0,1-.79.68,2.39,2.39,0,0,1-1,.22c-5.71.08-11.42.23-17.13-.09A2,2,0,0,1,56,49.1L55.71,49a.86.86,0,0,1-.36-.21l-.05-.06c-2.06-3.52-5.37-2.08-8.28-2.06-1.23,0-1.49,1.42-2.33,2.1a1.55,1.55,0,0,1-.35.21,1,1,0,0,1-.22.09,11.89,11.89,0,0,1-4.11.35c-4.14,0-8.29,0-12.43,0a5.29,5.29,0,0,1-2.25-.27,2.07,2.07,0,0,1-.77-.66c0-2.63-.09-5.26-.06-7.88s1.05-3.65,3.66-3.72c3.5-.1,7-.08,10.52-.1a3.74,3.74,0,0,1,.57-.45c1.56-1,3.37-.31,5.06-.36h.13q.36,0,.72,0a2.16,2.16,0,0,0,.36,0h0a5.44,5.44,0,0,0,.57,0,4,4,0,0,0,.9-.2c2.58.11,5.16,0,7.73.12l.87.05h.13a35.78,35.78,0,0,1,5.67,0h.09l.48,0A13.57,13.57,0,0,1,66,36h0a5.31,5.31,0,0,1,1.74.75c1.29,0,2.58.06,3.86.06A4.15,4.15,0,0,1,75.52,38.86Z"/><path class="cls-4" d="M62,35.92a5.4,5.4,0,0,1-.57.87l-5.75,0a4.16,4.16,0,0,0-.92-.91,3.69,3.69,0,0,0-2.67-.66c-2.15.23-4.34-.46-6.46.27l0,0-.27.31-.15.17a9.33,9.33,0,0,1-.75.79H38.68c0-1.74,0-3.47,0-5.2s.86-3,2.85-3.08q8.49.36,17,0c1.54-.15,2.2,1,2.88,2a11.26,11.26,0,0,1,.76,1.73A4.46,4.46,0,0,1,62,35.92Z"/><path class="cls-5" d="M44.69,51.09a2.57,2.57,0,0,1-.33.33A4.93,4.93,0,0,0,41.74,51H24.55c0-.84,0-1.68,0-2.51h.74l19,0a3.8,3.8,0,0,1,.35.34A1.54,1.54,0,0,1,44.69,51.09Z"/><path class="cls-2" d="M67.7,36.8H61.4V30.55A48.31,48.31,0,0,1,67.7,36.8Z"/><path class="cls-6" d="M58.52,28.51c-1.09.62-2.29.33-3.44.34-3.78,0-7.56,0-11.34,0a3.57,3.57,0,0,1-2.2-.35Z"/><path class="cls-5" d="M75.51,48.47V51l-17.4,0a4.45,4.45,0,0,0-2.41.42,3.87,3.87,0,0,1-.45-.47,1.5,1.5,0,0,1,.1-2.14,3.18,3.18,0,0,1,.37-.36Z"/><path class="cls-7" d="M55.72,48.45l0,3C55.32,53.29,54.12,54,52.29,54q-2.26-.06-4.53,0c-1.84.05-3-.68-3.4-2.56l0-3c.24-2.1,1.44-3,3.51-2.91,1.45.05,2.9.06,4.34,0A3,3,0,0,1,55.72,48.45Z"/><path class="cls-1" d="M44.49,34.69c.36-.92,1.16-.54,1.77-.55,2.26,0,4.53.14,6.78-.07s3,.64,2.61,2.73H46.91A4.22,4.22,0,0,1,44.49,34.69Z"/><path class="cls-2" d="M44.49,34.69c1,1,1.43,1.19,2.42,2.12h-2.5C44.44,36.1,44.46,35.39,44.49,34.69Z"/><path class="cls-3" d="M49.78,51.27c-.7-.09-1.64.3-2.28-.3s-.31-1.3-.21-2,.66-.61,1.13-.63c.83,0,1.65,0,2.47,0,1.1,0,2-.05,2,1.55s-1,1.37-2,1.37Z"/><path class="cls-8" d="M75.56,67.48c0,2.59-.94,3.53-3.51,3.53Q49.6,71,27.13,71h-.94a3.89,3.89,0,0,1-1.71-3.35c.06-5.55.05-11.1.07-16.65,0-.84,0-1.68,0-2.51,0-2.63-.09-5.26-.06-7.88s1.05-3.65,3.66-3.72c3.5-.1,7-.08,10.52-.1,0-1.74,0-3.47,0-5.2s.86-3,2.85-3.08h17c1.54-.15,2.2,1,2.88,2a48.31,48.31,0,0,1,6.3,6.25c1.29,0,2.58.06,3.86.06a4.15,4.15,0,0,1,4,2v1c0,2.87,0,5.73,0,8.6V51C75.53,56.5,75.57,62,75.56,67.48Z"/></svg>